/* XPM */
static char *_150e512b51740a3fb61166c46d5c328mDPTn8xhinKvZXVg[] = {
/* columns rows colors chars-per-pixel */
"64 64 194 2 ",
"   c #551607",
".  c #5B1304",
"X  c #5D170C",
"o  c #561809",
"O  c #5D1B0C",
"+  c #5D1B11",
"@  c #631504",
"#  c #641905",
"$  c #6B1A07",
"%  c #65170A",
"&  c #641B0D",
"*  c #6A1D0D",
"=  c #711E0C",
"-  c #641E12",
";  c #6A1E11",
":  c #771E13",
">  c #5D2615",
",  c #6C210D",
"<  c #73220E",
"1  c #78230F",
"2  c #662213",
"3  c #6C2314",
"4  c #6D2916",
"5  c #6C261A",
"6  c #652A1A",
"7  c #6D2A1B",
"8  c #732514",
"9  c #7B2614",
"0  c #742915",
"q  c #7B2A16",
"w  c #732619",
"e  c #7B261A",
"r  c #742B1C",
"t  c #7B2C1C",
"y  c #69301F",
"u  c #72311F",
"i  c #7D311E",
"p  c #6D2C23",
"a  c #742E22",
"s  c #7C2E21",
"d  c #742F28",
"f  c #673424",
"g  c #6B3524",
"h  c #6C3B2A",
"j  c #753223",
"k  c #7C3324",
"l  c #753229",
"z  c #7D3629",
"x  c #7D3A2B",
"c  c #7E3C30",
"v  c #7F402F",
"b  c #812A16",
"n  c #84271B",
"m  c #812D1B",
"M  c #83311D",
"N  c #89331F",
"B  c #832D22",
"V  c #882E24",
"C  c #833424",
"Z  c #8A3624",
"A  c #853926",
"S  c #8B3A26",
"D  c #833629",
"F  c #8B352A",
"G  c #843A2C",
"H  c #8B3C2C",
"J  c #913123",
"K  c #913B26",
"L  c #993F27",
"P  c #93372A",
"I  c #923D2C",
"U  c #9A3D2D",
"Y  c #853E31",
"T  c #8B3E31",
"R  c #933E32",
"E  c #9A3F32",
"W  c #83402E",
"Q  c #8D412D",
"!  c #954125",
"~  c #94412D",
"^  c #9A422D",
"/  c #9E482F",
"(  c #864233",
")  c #8C4233",
"_  c #8D463A",
"`  c #8E4A3B",
"'  c #934434",
"]  c #9A4434",
"[  c #954935",
"{  c #9B4935",
"}  c #944639",
"|  c #9C463A",
" . c #954A3B",
".. c #9F4E3D",
"X. c #9C4D3E",
"o. c #9B4B3B",
"O. c #95533E",
"+. c #9D513D",
"@. c #A2472F",
"#. c #A34335",
"$. c #A14536",
"%. c #A54537",
"&. c #A24634",
"*. c #A14936",
"=. c #A34B35",
"-. c #A94F36",
";. c #A24639",
":. c #A14838",
">. c #A34A38",
",. c #A14B3A",
"<. c #A44839",
"1. c #A5493A",
"2. c #A64938",
"3. c #A34C38",
"4. c #A34E39",
"5. c #A74C3A",
"6. c #A64F3B",
"7. c #A04D3F",
"8. c #A74E3C",
"9. c #A44C3E",
"0. c #A74E3E",
"q. c #A34D3C",
"w. c #A9493B",
"e. c #A84D3A",
"r. c #AB4B3D",
"t. c #AD4D3F",
"y. c #A94D3C",
"u. c #A65035",
"i. c #AA5237",
"p. c #A7533B",
"a. c #A1503F",
"s. c #A7513D",
"d. c #A3513D",
"f. c #AB503E",
"g. c #A9523E",
"h. c #AB523E",
"j. c #AA533D",
"k. c #944D42",
"l. c #9C4E41",
"z. c #955040",
"x. c #9D5243",
"c. c #9E5A45",
"v. c #9B554A",
"b. c #9D594A",
"n. c #A24B41",
"m. c #A34C42",
"M. c #A34F44",
"N. c #A54E44",
"B. c #A44D41",
"V. c #AB4F40",
"C. c #AA4E42",
"Z. c #A65043",
"A. c #A55146",
"S. c #A65247",
"D. c #A35343",
"F. c #A95042",
"G. c #AB5441",
"H. c #AD5541",
"J. c #AD5643",
"K. c #AE5743",
"L. c #AB5443",
"P. c #A65947",
"I. c #AF5B43",
"U. c #AC5945",
"Y. c #A4564A",
"T. c #AA5349",
"R. c #AA564B",
"E. c #AC554B",
"W. c #AA5748",
"Q. c #A65A4B",
"!. c #AC584D",
"~. c #AB5B4C",
"^. c #B05447",
"/. c #B05A46",
"(. c #B15A46",
"). c #B15548",
"_. c #B15549",
"`. c #B15E4B",
"'. c #AC5E51",
"]. c #B15F53",
"[. c #AD604E",
"{. c #B4624D",
"}. c #B9624E",
"|. c #AD6153",
" X c #AF6759",
".X c #B36253",
"XX c #BC6653",
"oX c #BC6856",
"OX c #B46459",
"+X c #BD6758",
"@X c #B26A5C",
"#X c #BB6A59",
"$X c #C06955",
"%X c #C1705D",
/* pixels */
"f g g y 7 r k H H I I K ~ *.p.j.g.J.J.J.J.g.{ Z { U L U U U U ~ G x G ) G C H n.E | ] F R M.W.C.).t.w.r.r.%.U U %.J P $.U E U n ",
"h g g g 7 r D } R ~ ] { ,.G.I./.,.s.g.6.G./.L.6.{ *.6.f.g.e.2.:.) W G G k w C | ] | ] E R n.S.q.F.2.&.2.2.&.E ] 2.P U 2.2.C.L.] ",
"g 6 6 6 2 2 k } H H I ^ { { { { ] ] { ] { { { ~ I ^ :.8.9.:.] ' k j j r w w H N.| E I F F R } } I I I I I I I I { I I ] ' ] | I ",
"f > > 6 2 2 s } | | { *.{ ] ~ ~ { | o.X.X.| I Z E ] { :.9.9.| ' r r r r w s } ~.T.| R F F F H } ' ) ' [  .' ' } } ' ' ' ' ' ' H ",
"g 6 6 p u r G X.a.| ] { ] I K I H H H ) ' ' H Z R H F Z I ] ' Z k k G k k D } S.E.n.| ] R R } } ) G G Q ) G G G a G G G G W G G ",
"O o   O & 2 w k t 8 < 9 1 = = 9 H k 3 3 r s t r C C t w s H F t & - 2 3 8 w C F t B B C C B t w k 7 2 4 5 2 2 2 2 z x j j j 7 r ",
"v v x G _ z.x.o.P.X.,.G.U.d.G.`.D.G 5 3 a r w 3 s G T D T } } H } ' [  .x.D.P.P.| B.S.Z.S.W.B.' ) j 2 2 2 6 2 2 7 _ _ x x x j x ",
"r j a r G } ' C Q A H ' ] ~ ] X.o.z 2 2 a r ; X 3 D ) T T } } T ' ) H G H ) H H } X.] H F } } Z } z & X - 2 3 5 - G G j z G G _ ",
"2 2 & & w w 3 w w w Z q t m = S C w & & 2 5 2 & 3 w w r r t s s w q w 8 0 w 8 t 8 t q < w 9 8 e 3 ; * ; ; 3 ; 3 w r t r w t s r ",
"l.D.o.X.D.D.o.o.x.o.P.X.D.Z.I D.|.Q.Y.Y.'.|.|.|.Q.'.'.|.|.'.'.'.'..XP.D.+.} H ' ' o.| X.!.!.U.~.D.B.l.D.Y.~.]..X'..XOX].].].].'.",
"H R H H ' ' H ) ) ) ' ' X.X.H | o. . . .o.o.x.x.} } X.X.X.X.| } o.D.| ' [ ' H ) P.D.o.+.U.| H I | | ] R | | 9.9.| n.m.n.| | ] I ",
"Z Z t w s t w t 3 * * w G H C H H S A A S A C i M M Z H H H Z C m C t w q t 0 r r 3 , i ' H m F E E R F P I I F B V V V B n e : ",
"L.C.E Z A C k C ) ) C ' P.~.!.~.{.{.I.{.}.}.I.d.`.{.}.XX$XXX}.`.+X+XU.{ [ [ Q Q Q C C { .X.X`.+X9.C.L.L.)._.L.1.).).).L.L.^.L.1.",
"F.9.I C H A C H k k 3 k ' H R H S S K ^ =.=.^ K =.=.=.=.3.=.^ L F.L.{ Z S H A k A k t A o.{ I ] { 9.L.C.C.C.$.I U I P Z P I I Z ",
"E E Z m Z H Z H k H t H l.' } H K ! / u.j.i.=.^ p.-.=.-.-.-.@.^ { 6.] S ~ [ Q A i i M H D.U.d.Z.{ 9.9.{ ] ] Z 9 ] ] I I U ] I Z ",
"E E Z m C i w r k ) k  .'.l.D. .~ { g.I.j.=.^ ^ 3.&.{ &.2.2.&.^ *.g.{ S H H t , 0 C A ~ P.[.P.P.| S.P.X.| q.] Z I I I I I ' H m ",
"Z Z C q C * w & 3 5 k _ v.x _ ) H '  .} } ' C : B V F F F Z V V ~ { ~ m N < m $ q @ % H x.o.' ' }  . .l.x. .k & w w w r s r w 3 ",
"Z i q w k * C k D k z x Y - 7 5 2 5 5 2 r D T F F F R R R T T F Z S N b S q ~ S ~ ' } ' C w 2 3 a a r 5 a G ) ) ) Y z k k k k l ",
"Z.o.[ | D.H P.~.D.k. .k.v.a Y G ( ( Y x ) Y.OXOXD.D.Y.R.R.Y.Y.D.[ [ { { 6.S d.d.| P.].P.' ) _  .G ) _ } z.Q.OX@XQ.b.z. . .} _ _ ",
"a.| o.D.P.Z | D.H G T _ k.r G z j x z j j G ) Y G G G G Y Y G G [ [ o.g.G.M ] { | | | } ) G k k w k G G Y ) Y G k k k z z k a w ",
",.{ o.a.Z.t Q } H H '  .o.w r 2 6 g j 7 7 j j w r r r r a j r r ' ~ { a.Z.m ' q.Z.' R  .' r * 2 s a w 3 w a s r 5 w r r s r w 3 ",
"~ ~ ~ ~ ] q ' } |  .X.D.D.t t 3 j x x x x ( _ ) G k k z z x x z ) H H Q ' 9 ~ ,.a.{ l.~.X.k r G G G k k D ) ) ) G z k k k k k k ",
"$ < 1 8 M $ C M M t C S ' * q 8 2 5 5 2 & 3 w 3 3 2 & & 2 2 2 2 i t i i Z * Z H } }  . .G 3 & w 2 3 3 3 3 3 2 & 3 2 & & & ; 2 2 ",
"< M S ~ d.I a.' H S H ~ o.M ' } ) } _ G t r w * t w ; 3 w w w 5 0 i H ' D.H X.| } ]  . .[ ' _ Q _ } ) k 3 2 2 3 2 3 w r r r w 3 ",
"q.~ Z.%X%X{.{.oX`.U.G.U.`.I.I.`.D.~.~.X.T F T } ] } R } l.} H ) } } z.P.~.~.P.P.D.D.P.~.P.x.c.Q.Q.x.o.) D G ) G  .x.l. .o. .} l.",
"H C H ~ H H ~ H I S Z S I S Z Z R } } R I R | 9.m.C.| l.B.R t t G k k k C C Z C C B k C C t i D H D G G C ) l. .) o.o. . .) G T ",
"* , 8 # # t H t ' H H ~ ' ~ H H ' } E I R | 1.1.1.C.9.C.Z.R e 8 3 2 & & ; w t C H Z C D H H Q ) H Z H H H  .D.x.x.P.D.X. .C 3 * ",
"r k C s s  .P.o.' H H ~ } { { ' Z.C.C.| | m.C.C.;.m.9.B.Z.' t w z z a a z ) } o.G C Z H ' [  . .x.o.X.o. .x.P.D. .x.x.o.o.H t t ",
"3 - 2 3 - 3 w 3 t 0 8 w q M C M e m B e 9 n V Z I ' H H H k * & O X X X & & & % ; ; 8 w t C k i t w t q w t C t H ) H G H k 8 8 ",
"k.( _ k._ G G D H H G Z Z H I H ' | X.} E E ] ] H ' H G ) ) k j x c Y Y ) Y D C G H T T ' } ' Q  .' ' ' G H ) G Q ' G C H G k C ",
"v.` k.v.k. . .} } o.o. .[ | o.| [ o.o.} ' ' H H ' o.[ ' x.c.O.O.` ` k.v.b.Y.D.l.l.Y.P.D.+.D.D.x.o.[  .' A H H i Z H C A  .D.P.[.",
"5 - 2 2 & 2 5 2 & w k t w t t q t t t t M C t < q i t 8 i i 0 4 2 2 5 r a s a a r k k w w t i i C t C t w q t 8 t t 3 * 8 8 , w ",
"B t t w D Y 2 2 O - & . @ C | ' ~ ~ ~ ~ ] { I m S ] ~ Z Z C M C t w t s G l X - X + - & * C ' Q ' ' H Z Z B s H } R B q C M q q ",
"] { | D T _ 5 + + 2 7 5 3 H | I G.G.g.6.6.*.I m d.G.6.=.J.I.g.d.] I ]  .v.` p p p p p 7 w Q d.d.q.,.] } X.} H R | } F H | o.] { ",
"| C.S.'  .v.l 6 2 6 j r r ) o.~ ] ] { ] ~ I Z 9 8 1 = 9 ] D.q.{ ^ ~ | X.Y.k.d l l p a 5 w Q D.g.' ~ S H ' H t t w w ; 8 H ~ H H ",
"F I } T } _ 7 7 p 7 7 5 w ) +.o.{ q.Z.a.q.| ] H ] ] S S q.G.{ ~ ~ ~ o.o.x.k.a p a p p 7 r H a.d.o.o.' ' X.T B s T T F ) P.~.D.D.",
"| E | | l.) 5 z z a r w r Q X.| H ' ' ' I H Z m { | ~ H | o.' I 6.d.U.l.x.k.d a z l z k k Q { { S S C k D s w s H T H T l.D.o.o.",
"Z m C s k r X r 2 & - & , 0 t 8 8 w q q t C B q * q q q Z H H ' M N Z t k k 2 5 7 2 3 w 3 8 t 0 8 8 * , w 8 3 t 3 w 8 w k C t C ",
"] { | H T } Y  . ._  .l.o.x.D.' H H T ) o.P.P.D.l.P.Y.X.D.x.X.D.Z.g.P.} l.Q.k.b.v.k.z.c.o.+.D.+.' Q G Q o. .}  .) o.X. .o. . .D.",
"I q.| 0 q ' T Y G k G G H ) ' A ' ) T ) X.D.D.o. .D.l.} X.X.} | G.Z.q.H H  .T } _ G ) [ ) ' { [ o.' G Q x.l.) ) ) o.X.' ' ) Q +.",
"m m 8 = w 8 ; w 3 w 3 3 w 0 , < w w 3 2 w s k s s t t t B B e 8 e t t w 8 w r r w k r w r t < * 0 8 0 i C t w w s k r * * r i 0 ",
"I.U.D.D.W.P.D.Q.x.D.z.o.D.D.{ o. . .} _ } o.x.x.X.| } } X.X.| } F.G.Z.X.X.X.x.o.o.P.D.x.Q.[.D.+.' Q Q [  .' ) }  . .) G H ' Q A ",
"{ d.| } | } '  .o.x. . .+.o.Q Q [ [  .[ '  .o.o.| } ' ' ] { | ] 9.q.| ] { X.+.o.o.P.x.| D.D.[ ) ' Q Q ) ) T ) }  . .) H ) ' H t ",
"S ~ S t t q w t w r w 8 t 0 , , # , , * $ * 8 8 C m e 9 e n n n H H C t w t M C q C t w t i 8 , * * * * % % * 3 s s t w w w < # ",
"~ { I m m m t B q t w 8 i q 8 0 C A Q H S H ~ I .X`.L.F.F.L.L.L.9.q.' M 8 8 t M q C t 0 C H C C A H H H D C D D M.D.D.X.| | { [ ",
"~ { I M Z H H H H H C M H S A S A S Q Q H ~ ~ I `./.L.8.8.8.8.L.L.Z.| H M Z ~ ] ' o.' S } o.[ } H I ' H H F C B } | X.} R I ' ] ",
"~ { ~ S ] q.| ' } } A C H Q S Q Q ~ ' ~ ~ ' ~ K d.e.6.2.%.2.w.e.| } H Z H ] d.,.a.D.{ H ' [ ' ' ' ] } I T T F s R R R ' R H I ' ",
"S ' ~ H X.U.| H B.X.) H ' ' Q [ ~ [ ' ~ ' ~ I N 6.,.6.,.2.e.8.g.!.a.' ' | U.D.o.a.D.[ H ' o. . .} } I F D F C e } R R ' } ' H H ",
"~ I ' o.| ' } X.} D.} l.Y. .o.} [ [ +.O.Q A A 0 a.o.o.a.D.a.a.a.P.x.} | B.| ' D.Y.l.l.T Q.l.l._  . . .' ) G k 3 } X.X.} } ' ' ' ",
"= $ $ < q q t t C G w t G k k r 3 0 i i , , , # t 0 0 q 0 8 8 0 8 < $ = C Z C H C s w ; D k s k r r r w w w 2 & 3 3 3 ; * * * * ",
"M m m S a..X#X.X.X~.' } Y.D.x.' | +.P.D.[ [ o.[ ' ' ' ' ~ S S ~ K K M Z G.XX}.`.~.D.' ] X.D.| D.} } _ Y T ) ) G G G H G C C C C ",
"{ { ^ ' q.`.!.a.D.D.H T D.x.x.| ' ] a.{ S H ] ' :.| :.{ ~ S I ^ I ^ Z N 6.{./.g.j.,.Z { ] q.~ D. . ._ G k G G k T T H H G C C D ",
"6.J.J.6.d.G.Z.{ ] q.I ] U.P.~.P.X.q.P.q.] { F.Z.L.L.L.L.9.] { e.2.i.@.L 3.j.p.=.^ ^ N ] ] d.^ D.D.c. ._ ) _ } }  .} }  .} T T ' ",
"K ^ { *.*.,.9.a.] Z.' ] X.} | | ] ] | | ] :.W.L.9.9.9.:.{ E ] ;.2.i.@.! / / ^ { L ^ Z K I ~ Z H H Y G z D G _ } ' T T ' ) G G ) ",
"6.6.6.,.{ I I ^ q.U.' ' } H H H H Z H H H ' q.{ 9.{ ] { { ] ] :.3.3./ ^ { ^ I { ] ..{ C ~ H Z i k z z k k G ) ) ) H H ' ) D G ) ",
"N b b m m 9 q N t C = < t w t q C t t t t Z H Z Z C t C C C C S N b 1 9 m 8 < t 8 t t @ w w t 3 r k k w w w r r t w w s t 8 w s ",
",.~ I ] { ~ I { I ~ ' ' } } H C k k z k k k k k C C C C k C H ' H A G H ) G D z G z k z G G z k 3 k k a w r w 3 w r w w w s H } ",
"Z M N I ] I I ] ' } } ' } } T C j r 7 5 7 r r 4 u r r 0 3 3 r k G k k k z k k k z z z z z l l l 2 5 w 2 2 2 2 & ; 3 3 3 3 w t C ",
"] I I ] ] H Z Z C C Z C C D s r z u r j W _ ` _ ` _ _ ( G G Y ( Y x z x x l a a p a l l p p p l r k k k G ) }  .' }  .X. . .X.l.",
"`.P.P.P.D.' H D D H H G G T G z u u u z (  .v.b.v.v.z.} _ _ } _ _ _ ` k. .Y l 7 5 p l l p 6 p l r k k G ) l.Q.|.Q.Q.~.~.~.~.Q.Y.",
"H Z k k t r w w ; 3 3 ; - ; ; - r r r 7 5 r z x G z k k k k k k k k z G G j 2 - 2 7 p 5 - + - 5 5 2 2 2 w r C G ) H D D G H G D ",
"X.} ' ' ' }  . .T ) ) Y z D D z ) _ _ G k k G ) G G D D G H H H G C C G G D k k G Y ( x a 7 r j G k k k k k G G ) G C C D H G D ",
" .} ) T T ) ) ) } k.k._ _ _ _ _ }  . .} ' ' } X.} ' ' ' | | | | o.[ ' { o.{ { o.+.+.z. ._ ) _  . ._ ) _ } _ _ } } ) H H '  .} ) ",
"r r w w 5 w w 3 5 a a p 5 a l z s t t t t t t t t e e e B B V B q 9 q M i q 8 8 8 8 0 0 8 0 t k k r w a k r w w w 3 * 3 t s t w "
};
