/* XPM */
static char *_1cf06c9fd3a4f7289b60b06a66ff487n3rOTYaDq0FTq0G3[] = {
/* columns rows colors chars-per-pixel */
"64 64 170 2 ",
"   c #372B13",
".  c #372D12",
"X  c #362C13",
"o  c #372D14",
"O  c #382C12",
"+  c #3A2B14",
"@  c #382C14",
"#  c #392D15",
"$  c #3B2C15",
"%  c #382C16",
"&  c #4B0000",
"*  c #4B0100",
"=  c #4A0001",
"-  c #4B0001",
";  c #4B0102",
":  c #4C0000",
">  c #4D0000",
",  c #4C0100",
"<  c #4D0101",
"1  c #4E0000",
"2  c #4F0101",
"3  c #4D0200",
"4  c #4C0201",
"5  c #4C0002",
"6  c #4D0103",
"7  c #4E0002",
"8  c #620000",
"9  c #630000",
"0  c #630100",
"q  c #640000",
"w  c #650101",
"e  c #660000",
"r  c #640002",
"t  c #650103",
"y  c #6D0000",
"u  c #6E0000",
"i  c #6F0000",
"p  c #6E0001",
"a  c #700000",
"s  c #710000",
"d  c #710100",
"f  c #700001",
"g  c #710001",
"h  c #720000",
"j  c #710002",
"k  c #710004",
"l  c #7B0000",
"z  c #7B0100",
"x  c #7B0001",
"c  c #7B0002",
"v  c #7C0000",
"b  c #7D0000",
"n  c #7D0100",
"m  c #7D0101",
"M  c #7E0100",
"N  c #7C0201",
"B  c #7C0002",
"V  c #7D0002",
"C  c #7D0103",
"Z  c #473716",
"A  c #493616",
"S  c #4A3716",
"D  c #4A3717",
"F  c #473817",
"G  c #483816",
"H  c #483817",
"J  c #493917",
"K  c #483719",
"L  c #4A3719",
"P  c #48371B",
"I  c #473A18",
"U  c #483918",
"Y  c #493918",
"T  c #493A19",
"R  c #5C3F1F",
"E  c #5E3F20",
"W  c #5D3F23",
"Q  c #5B411E",
"!  c #5D401E",
"~  c #5E411F",
"^  c #5B4120",
"/  c #5D4020",
"(  c #5E4121",
")  c #5C4221",
"_  c #5D4022",
"`  c #744D26",
"'  c #754E27",
"]  c #764B28",
"[  c #734D28",
"{  c #744C28",
"}  c #754D29",
"|  c #754D2A",
" . c #860000",
".. c #870000",
"X. c #870100",
"o. c #870001",
"O. c #870102",
"+. c #880000",
"@. c #890000",
"#. c #880100",
"$. c #890101",
"%. c #8A0000",
"&. c #880201",
"*. c #880002",
"=. c #890103",
"-. c #8A0002",
";. c #960000",
":. c #970000",
">. c #960100",
",. c #980000",
"<. c #990000",
"1. c #990100",
"2. c #980001",
"3. c #9A0000",
"4. c #990002",
"5. c #9A0003",
"6. c #A30000",
"7. c #A30100",
"8. c #A40000",
"9. c #A50000",
"0. c #A50100",
"q. c #A40001",
"w. c #A50001",
"e. c #A60000",
"r. c #A40200",
"t. c #A50102",
"y. c #AF0000",
"u. c #AF0100",
"i. c #AF0102",
"p. c #B00000",
"a. c #B00100",
"s. c #B10101",
"d. c #B20000",
"f. c #B10200",
"g. c #B00002",
"h. c #B20002",
"j. c #BB0000",
"k. c #BA0100",
"l. c #BB0200",
"z. c #BC0000",
"x. c #BD0000",
"c. c #BD0100",
"v. c #BC0001",
"b. c #BE0100",
"n. c #C70000",
"m. c #C70100",
"M. c #C80000",
"N. c #C80100",
"B. c #C90101",
"V. c #CA0000",
"C. c #C80002",
"Z. c #CA0002",
"A. c #D20000",
"S. c #D30000",
"D. c #D40000",
"F. c #D50000",
"G. c #D50100",
"H. c #DF0000",
"J. c #DF0100",
"K. c #E00000",
"L. c #E10000",
"P. c #E10101",
"I. c #E00003",
"U. c #EB0100",
"Y. c #EC0000",
"T. c #ED0101",
"R. c #EE0000",
"E. c #FB0000",
"W. c #FC0000",
"Q. c #FD0100",
/* pixels */
"F O @ @ @ @ @ @ @ @ @ @ O @ @ @ @ @ @   @ @ @ @ @ @ @ @ @ @ @ @ H S Y H H S H @ ! / / / / / / ! / / H H H Y H H Y H S K K H O O ",
": +.+.X.+.8.8.8.8.8.a 8.8.8.: @ * +.X.q 8.8.8.q 8.8.8.8.+.8.: Y : p.,.p.,.,.8.c.c.c.c.8.c.8.: ^ : 6.8.v +.v 8.8.8.c.c.c.p.p.: O ",
": q p.c.c.p.c.j.c.K.c.c.K.8.: @ : +.c.p.c.j.c.c.c.c.c.c.M.+.: H : p.M.D.D.p.n.K.K.K.M.K.W.c.* / : +.p.K.8.p.p.K.K.K.K.D.Y.,.: @ ",
": +.+.+.u 8.+.+.8.8.6.8.c.8.: @ : +.9 +.+.+.+.a +.8.8.+.p.,.: K : ,.,.p.+.+.6.c.c.c.c.c.K.8.* / : c.+.c.z c.+.8.c.c.p.p.M.,.: @ ",
": q q +.a +.X.8.+.X.a +.p.+.:   : +.q +.+.+.+.a +.X.+.a c.z : H * ,.,.u +.8.+.+.+.8.+.8.M.v : ` : v +.X.+.v +.v +.v u p.M.a : @ ",
": a a +.a +.+.+.q q q q p.q : @ : +.+.+.+.+.a q a +.q ,.c.v : H : ,.a +.+.+.+.8.+.+.8.+.M.v : / : +.+.v 8.+.+.+.v a ,.p.,.a : @ ",
": +.a +.a a q q +.+.+.q +.a : @ : q q q a a +.+.+.+.,.v ,.v : K : +.8.+.+.v +.+.+.8.+.8.M.v : / : 8.+.+.v +.+.a a v a a v a : @ ",
": : : : : : * : : * : : : : : @ : : : : : : : : : : : : : : * H : 6.+.+.+.+.X.8.X.+.8.+.M.v : / : : : : : : : : : : : * : : : + ",
"H o @ @ O   @ @ @ @ @ @ @ @ @ @ @ @ @ O o @ @ @ F H / H H F K @ : 8.+.v +.v +.+.+.8.+.8.M.v : / / / / / / H H S K H H H H @ @ o ",
"8.+.+.8.a +.: @ : 8.+.8.+.+.8.8.8.8.8.+.8.+.: H : p.p.p.p.p.* { : 8.+.+.+.8.X.v +.+.8.+.M.v : ^ : +.c.c.,.p.* K : ,.,.p.8.+.+.8.",
"c.c.c.K.K.8.: @ : 8.c.M.M.p.p.M.M.M.p.M.Y.8.: H : ,.M.p.J.p.: { : 8.+.v +.+.+.X.X.8.+.8.M.v : / : c.D.K.W.p.: H : ,.c.M.M.p.p.M.",
"a +.+.8.c.+.: @ : +.+.8.+.a +.8.8.8.8.8.M.,.: H : p.,.,.c.8.: / : 8.+.+.+.+.+.+.+.+.8.+.M.v : / : +.,.:.M.a : I * ,.+.u +.+.6.8.",
"a +.u +.c.a : @ * +.+.a a +.a a a +.a +.c.a : E : p.v a p.v : / : +.+.+.8.v 8.+.v +.X.8.c.+.: { : v z ,.p.v : Y * a a a +.a +.a ",
"u a q +.K.+.: @ : +.a a a a a +.a a +.v c.a : F : v a X.p.v : / : +.+.+.+.X.v +.+.+.8.X.c.+.: / : v v z p.v * H : a a +.a u a a ",
"9 a a q c.a : @ * +.+.a a q a a a +.v ,.c.a : Y : a +.+.,.+.: [ : 8.+.X.+.+.+.+.v +.+.v c.+.: H : ,.v a p.v : @ : a a u a a a a ",
": : : * : : :   : +.a a a a a +.a v ,.v c.a : H : : : : : : : ! : : : : : : : : : : : * : * * F : : : : : : : @ : : : : * : : : ",
"H @ @ @ @ + o @ : +.a q a q a a v ,.v ,.c.a : @ / / / / / R / { ^ { / / / / / / ^ / / ^ / H F H H Z H H H @ @ @ @ H H @ @ @   @ ",
": p.p.p.8.8.: H : +.a a a +.a a v v ,.v c.a : / : +.c.j.8.c.: / : +.c.c.c.8.c.c.c.c.v c.p.p.: Y * p.,.p.X.X.8.8.8.8.8.+.8.+.* @ ",
": ,.M.8.D.p.: S : +.a q a u v v v ,.v ,.c.q : / : c.D.U.W.c.: / * c.D.K.M.M.M.K.K.K.K.D.W.v : H : y.M.M.M.p.p.M.M.M.p.M.Y.8.: @ ",
": p.+.+.c.+.: o : +.a a a v v z z v ,.v y.v : / : +.8.8.D.v * / : +.v +.8.8.8.v 8.8.,.y.D.p.: H : ,.+.8.+.a +.8.8.8.8.6.M.+.: @ ",
": 8.a a ,.q :   : a a a ,.a ,.v a v v +.c.+.: { : +.X.8.c.+.: / : z +.v v 8.8.v v a ,.v D.p.* H * +.+.a a +.a a u +.a +.p.q : Z ",
": a a a ,.q : @ : a a v v v a v v v +.+.c.+.* ^ : +.+.+.c.+.: / : v 8.z +.v +.v a a a v ,.v : H : +.a a a u a +.a a +.a p.9 : @ ",
"* a a a v a : H : +.z v v v v v a a +.v c.+.: / : 8.+.v c.+.: / : v 8.+.+.8.+.z v u a z +.v : @ : +.+.a a q a a a +.a X.p.q : @ ",
": : : : : : : @ : : : * : : * : : : : : * * : / : : : : : : : / : : : : : * : : : : : : : : : @ : +.a a a a a +.a a +.a p.q : @ ",
"H @ @ @ @ @ @ @ H Y H H H H H @ / / R / / / / R / / / / ^ ^ ! / ^ { / / / H H H H H K H H @ @ @ : +.a q a q a a a +.a +.p.q : o ",
"8.X.8.8.8.a : / : p.p.p.p.p.u c.c.j.c.8.j.c.: E : c.8.c.j.c.8.c.j.c.z c.p.a * H : p.p.y.8.8.: F : +.a a a +.a q a a +.a p.q : @ ",
"M.M.M.M.K.8.: H : p.D.D.D.p.K.K.K.K.M.K.W.M.: / : c.D.D.D.D.D.D.D.D.D.M.Y.v : H : :.M.8.D.p.* H : +.a q a a a a u +.a +.p.q : o ",
"q 8.+.a 8.,.: / : p.,.v 8.+.+.8.8.c.8.c.M.v : / : +.8.c.8.8.j.c.c.8.a p.j.v : H : p.+.+.c.X.: @ : +.a a a a a u a a +.a p.9 : @ ",
"q +.+.+.p.v : H : v v a +.+.+.8.6.+.8.8.p.8.: { : 6.+.8.8.+.8.+.c.a a a y.a : H : 8.a a ,.q : @ : u a a +.9 +.a q a u +.8.a * Y ",
"q a a ,.8.v : H : ,.q +.+.+.+.8.+.+.6.+.p.8.: / : v +.+.+.+.+.v v a a ,.p.a : H : a a a ,.q : @ : a a a a a q u a a +.a 8.a : @ ",
"a q a z X.v : H : a +.+.8.+.+.X.8.+.v v 8.v : / : +.X.+.8.8.+.v v u a u 8.a : @ : a a u v a : H : +.a u a a a a q a a q 8.a : @ ",
": : : : : : * / : : : : : : : : : : * : : : : / : : : : : : : : : : : : : : : @ : : : : * : : @ : : : : : : : : * * : * * : : @ ",
"/ H / / / H / @ { / { / ^ / / { ] / { ! { / / ! / / / / { H F H H H H H F @ @ + @ @ @ @ @ @ @ @ @ @ @ @ @ @ @ @ @ H H @ + H H @ ",
": p.p.p.,.p.8.c.c.c.6.c.c.c.: ` : +.c.c.8.c.: / : c.8.c.:.,.p.y.p.p.p.,.8.+.: @ * a 8.8.+.8.: @ * 8.8.8.8.8.8.8.8.8.8.+.8.8.: . ",
": ,.c.D.c.y.K.K.M.J.K.K.Y.c.: / : c.D.Y.W.c.: / : j.D.D.D.c.c.D.D.D.c.M.Y.8.: @ : 8.c.D.Y.8.: @ : +.p.c.p.M.M.p.M.M.M.M.K.+.: H ",
": ,.,.a 8.c.c.8.c.c.j.M.A.8.: { : +.6.8.D.v : / : 8.,.p.,.v ,.p.p.p.8.6.M.+.: @ : a +.+.j.q : H * q a a +.+.+.+.X.+.+.8.8.,.: H ",
": ,.v q X.+.8.+.8.c.8.p.M.8.: { : X.X.8.c.+.: { : ,.,.v v ,.v v v +.a +.p.q : H : u a +.8.a : @ : q a a +.+.+.X.+.a 8.a y.a :   ",
": a +.8.+.6.8.X.+.+.+.+.p.8.: ` : +.X.X.c.+.: / : ,.v v v v v ,.a a +.a p.q : @ : a a a 8.a : H : a X.a +.q a a a +.+.a p.v : @ ",
": u +.+.8.X.+.+.+.+.v +.8.8.: { : 8.+.v c.X.: H : ,.,.v v a v a a +.a +.p.9 : + : +.a q 8.a : @ : a u a a a a +.a q v ,.X.z : @ ",
": : : * * : : : : : * : : : : / : : : * : : : H : ,.v v v v a +.a a +.u p.q : @ : : : * : : : @ : : : : : : * : * : : : * : : @ ",
"{ / / R / / / / ! / / R / / / / / ! / / E K H H : ,.v a v q a a a +.a +.p.q : o @ H @ @ @ @ @   @ H O O F Y H @ E H / / / R H H ",
"8.8.c.c.c.c.: / : 8.c.c.c.c.c.c.c.c.c.c.v ,.: H : ,.v v a +.a q a a +.a p.q : @ : 8.8.8.a a 8.8.8.8.8.8.8.8.: ! * ,.a ,.,.v +.a ",
"c.D.D.D.E.M.: / : v D.j.M.M.c.D.D.J.K.D.K.,.: K : ,.v q a a a a u +.a +.p.q : o * +.c.8.c.c.M.n.M.M.M.p.D.p.* / * 8.c.c.6.M.M.M.",
"v 8.8.8.p.v : / : +.+.c.+.8.+.8.+.c.,.p.c.,.: H : ,.a a a a a a a a +.a p.9 : @ : 8.+.+.+.8.a u +.+.+.8.c.,.: H : v ,.,.+.v 8.a ",
"v v 8.8.D.v : / : +.8.+.8.X.+.X.+.,.v ,.c.v : H * a a a +.q X.a q a u +.8.a * Y : 8.a a a a +.a a u a a 8.a : H * z a a 8.z v a ",
"v v v 8.p.+.: / : +.+.+.+.+.+.+.v v z a c.,.* H : a a a u a q a a a +.a 8.a : @ : a a a +.a a a a +.a a 8.a : H : a 9 8.v +.v a ",
"v v v v ,.v : ^ : +.v +.v +.v a v v v v ,.a : @ : +.a a a a a a q a a q 8.a : @ : a a a u a a +.q q a v +.v * ^ * a +.8.+.+.v a ",
": : : : : : : Q : * * : : : : : : : : : : : : O : : : : : : : * * * : * * : : @ : : : : : : * : : : : : : : : H : : : : : : : : ",
"{ { { / / / / / / / / / / H H H / H H H Z @ . @ @ + @ @ @ @ @ @ @ O @ @ @ o @ @ @ @ @ @ @ @ @ @ Y K / / H / / @ { { / / { ` / Z ",
": c.8.c.6.8.c.c.c.c.c.8.p.,.: K : p.p.p.+.8.8.8.8.8.+.8.8.8.: @ * 8.8.8.8.8.: H : 8.+.8.+.X.8.p.p.y.p.,.y.,.: / : +.c.c.8.c.: F ",
": c.D.K.K.M.M.K.J.K.M.D.W.p.: H : y.c.M.p.p.p.M.M.p.p.M.D.8.* @ : +.c.8.D.p.: H : 8.c.M.M.p.c.D.D.D.c.D.W.8.: / : c.D.Y.W.c.: H ",
": 8.8.c.8.+.8.c.c.c.p.p.A.,.: H * p.a +.a X.a +.+.X.+.+.p.+.* @ : 8.+.+.c.+.* @ : +.+.8.X.z ,.p.p.p.p.p.M.8.: / : +.8.6.D.v : H ",
": 8.8.+.+.8.X.+.+.,.v ,.c.a : / * +.a +.a a a a a a a +.+.a : @ : 8.a u ,.q : @ : +.+.a v ,.v v v ,.v +.M.v : { : +.+.8.c.+.: H ",
": 8.X.X.+.+.+.8.v z ,.v c.a : H : a a a a a q a a a q a p.a : + : u u a ,.q : @ * +.u v v v v ,.v v X.+.M.v : / : +.X.+.c.X.: H ",
": 8.8.+.+.v +.v v ,.v ,.c.a :   : +.a q a a q a a a a a z u : @ : a a a v a : H * +.,.v v a v v v +.+.8.M.v : / : 8.X.v c.+.: H ",
": 8.+.+.+.+.v ,.z v ,.v c.u : @ : : : : : : : : : : * : : : : @ * : : : : : : @ * ,.v v v v v ,.a X.8.+.M.v * / : * : : : : : H ",
"* 8.+.v +.a v v v ,.v ,.c.q : @ @ @ @ @ @ @ @ @ @ o @ @ @ @ @ @ @ @ @ @ @ @ @   : ,.v u v u z a +.8.+.8.M.v : / { { / / / / / K ",
"* 8.+.+.v ,.v a v v ,.v p.q : @ : a 8.8.+.8.: o : +.+.8.8.8.8.+.8.8.8.8.8.+.: H * ,.v v v ,.a v +.+.8.+.M.v : / : a 8.8.+.8.: @ ",
": 8.+.a v z v v v ,.v +.p.q : @ : 8.c.D.Y.8.: @ : a M.p.M.p.M.p.M.p.M.M.Y.+.* H : ,.v u v u +.+.+.8.+.8.M.v * / : 8.c.D.Y.6.: @ ",
": 6.v v v v v v v v +.a p.q : @ : a +.+.j.q * @ : +.+.+.a a +.a X.+.8.+.j.:.: H : ,.v v a +.+.+.+.+.8.+.M.z : / : a +.+.c.q : H ",
": v v v ,.a ,.v a a a +.8.a : H : a a +.8.a : @ : q +.+.+.+.+.+.a X.a +.c.,.: H : v v a 8.v 8.+.v X.+.8.c.+.: { : a a X.8.a : @ ",
": v v v v v k v a a +.a 8.a : @ : a a a 8.a : @ : +.a a a +.a +.a +.a ,.p.v : H : v a +.X.+.v X.+.+.8.+.c.+.: / : a a a 8.a : H ",
": +.a a a a a a q a a q 8.a : @ : +.u q 8.a : @ : q a q a a q +.+.q v v +.v : H : +.v v v v v v a v v u p.v : H : +.a q 6.a : @ ",
": : : : : * : : : : : : * : : @ : : : : : : : @ : : : : : * : : : : : : : : : o : : : : : : : : : : : : : : * @ : : : : : : : H "
};
