/* XPM */
static char *_7b4739d65174735e905cff3a84d5621BZdaRngpm8R3qMYv[] = {
/* columns rows colors chars-per-pixel */
"64 64 154 2 ",
"   c #1F1F1D",
".  c gray12",
"X  c #20201E",
"o  c #211F20",
"O  c #211F22",
"+  c #1F2120",
"@  c #202020",
"#  c gray13",
"$  c #202022",
"%  c #212123",
"&  c #222222",
"*  c gray17",
"=  c #2C2A2B",
"-  c #2C2C2A",
";  c #2D2C2A",
":  c #2D2D2B",
">  c #2E2D2B",
",  c #2D2B2C",
"<  c #2D2B2E",
"1  c #2B2D2C",
"2  c #2C2C2C",
"3  c #2D2D2D",
"4  c #2E2C2D",
"5  c #2C2E2D",
"6  c #2C2C2E",
"7  c #2D2D2F",
"8  c #373737",
"9  c #373936",
"0  c #363837",
"q  c #383836",
"w  c #393836",
"e  c #373739",
"r  c #393738",
"t  c #373938",
"y  c gray22",
"u  c #393939",
"i  c #3A3839",
"p  c #38383A",
"a  c #734B27",
"s  c #754B25",
"d  c #754A27",
"f  c #734C25",
"g  c #734D26",
"h  c #744D26",
"j  c #764C26",
"k  c #754E27",
"l  c #764B28",
"z  c #734D28",
"x  c #744C28",
"c  c #744C29",
"v  c #754D29",
"b  c #774C29",
"n  c #744E29",
"m  c #474745",
"M  c gray28",
"N  c #464847",
"B  c #484846",
"V  c #494846",
"C  c #494748",
"Z  c #49474A",
"A  c #474948",
"S  c #47484A",
"D  c #484848",
"F  c #494949",
"G  c #484A49",
"H  c #48484A",
"J  c #535351",
"K  c #535353",
"L  c #545452",
"P  c #555452",
"I  c #555553",
"U  c #525355",
"Y  c #535355",
"T  c #555354",
"R  c #545255",
"E  c #555356",
"W  c #535554",
"Q  c #535456",
"!  c gray33",
"~  c #555555",
"^  c #565455",
"/  c #545655",
"(  c #545456",
")  c #555557",
"_  c gray39",
"`  c #646462",
"'  c #656462",
"]  c #656364",
"[  c #636564",
"{  c #646464",
"}  c #656565",
"|  c #666465",
" . c #646665",
".. c #646466",
"X. c #646567",
"o. c #6F6F6F",
"O. c #6F716E",
"+. c #6E706F",
"@. c #70706E",
"#. c #71716F",
"$. c #716F70",
"%. c #716F72",
"&. c #6F7170",
"*. c gray44",
"=. c #717171",
"-. c #727071",
";. c #707271",
":. c #707072",
">. c #717173",
",. c #727073",
"<. c #7B7B79",
"1. c #7B7B7B",
"2. c #7B7D7A",
"3. c #7A7C7B",
"4. c #7C7C7A",
"5. c #7B7B7D",
"6. c #7D7B7C",
"7. c #7D7B7E",
"8. c #7B7D7C",
"9. c #7B7C7E",
"0. c #7C7C7C",
"q. c gray49",
"w. c #7E7C7D",
"e. c #7C7E7D",
"r. c #7C7C7E",
"t. c #7D7D7F",
"y. c #8B8B89",
"u. c #8B8B8B",
"i. c #8C8C8A",
"p. c #8D8C8A",
"a. c #8B8B8D",
"s. c #8D8B8C",
"d. c #8B8D8C",
"f. c gray55",
"g. c #8D8D8D",
"h. c #8C8C8E",
"j. c #8D8D8F",
"k. c #8E8E90",
"l. c #979797",
"z. c #989896",
"x. c #999997",
"c. c #999798",
"v. c #99979A",
"b. c #979998",
"n. c #989898",
"m. c gray60",
"M. c #989A99",
"N. c #98989A",
"B. c #A7A7A7",
"V. c #A9A7A8",
"C. c #A7A9A8",
"Z. c gray66",
"A. c #A9A9A9",
"S. c #A8A8AA",
/* pixels */
"2 2 - 2 2 2 @ @ @ 2 2 < * 2 2 @ @ @ 2 2 2 2 2 2 2 - 2 2 1 @ @ @ * 2 2 < 2 2 1 2 @ @ @ 2 2 < 2 2 2 2 2 2 2 2 @ @ @ 2 2 2 2 2 2 2 ",
"! ! Y D y y @ @ @ y y D y D y @ o @ y D D ! ! ! D y y @ @ @ y D ! ! ! ! ! D D y @ @ + e D ! ! ! ! x l ! D y o @ @ t D y D ! ! ! ",
"! K ..R ..y 2 @ 2 y ..! K ! D 2 @ 2 D ! a *.! l ! D y < @ 2 D R ! *.*.*.*.*.K D * o 2 ! *.! *.*.! ! ! R W D 2 @ 2 D R ! L *.*.*.",
"q.q.*.*...D y 2 q D ! d d f.! M 2 D x *.*.*.*.*.l ! D y 2 D ..[ *.q.*.f.*.q.q...C 2 D f.*.*.*.q.q.6.! ! ! R M 2 D ! *.q.f.*.*.q.",
"n.q.n.n.*.! y 2 y ! ! ..n.Z.f.] * D R @.*.*.z.*.*.! ! y < D x *.h $.*.o.6.q.x ! D 2 ! x 6.q.f.f.f.f.f.n.*.*.! 2 t ! *.n.Z.f.f.n.",
"n.q.Z.n.x ! D 2 D ! ..*.q.f.*...2 ! *.*.q.n.f.q.o.*.! D 2 y D x ! R ! ! ! ! ! D y 2 x 8.q.q.q.n.n.f.n.l.*.! D 2 D ! x q.f.z.q.Z.",
"d.f.n.q...L D 2 q D ! ! *.f.n...2 ! *.*.6.q.q.q.*.! ! D @ 2 y D ! ! D D ! D D y q 2 l q.*.q.6.Z.n.f.f.f.q.! D 2 ! ! *.*.f.n.q.n.",
"@.*.q.1.*.C y 2 y y D ..x *.f.! 2 ! *.*.q.n.n.q.n.! ! ! @ @ 2 2 2 2 2 2 2 2 2 2 2 2 ! *.&.q.q.q.q.n.f.*.q.*.! 2 D ! h x *.1.q.*.",
"*.*.&...D r 8 * y y q y ! ! ! y 2 x f.*...q.V.n.1.*.! D @ 2 y D R x ! *.x l B y y 2 D *.f.4.l.c.q.q.q.x q.*.! 2 y D ! ! ! ! ! ..",
"! ! ! 8 y q 2 @ * y y y y D y 2 @ @.&.*.o.` $.q.q.o.! ! 2 y x q.f.f.Z.f.*.&.! D r = D x $...q.Z.n.*.q.*.*.i.D @ 2 y D y D R ! ! ",
"2 - 2 2 2 2 . @ @ 2 2 < 2 2 2 . @ x *.*.q.*.n.*.*.l ! D 2 D ..q.1.@.f.*.q.*.....D * D x ! *...*.q.*.! ! *.K D @ @ 2 2 2 2 * < 2 ",
"x x ! R ! R ! ! D D ! ! D y y 2 @ D ! *.f.n.n.q.f.*.! ! 2 y ..! *.*.*.*.*.! ! ..y 1 y D ! ..*.q.*.! L ! ! D y + 2 y ! ! ! ! ! ! ",
"*.q.*.*.*.f.5.*..._ ....! ..y y 2 D ! @.*.q.Z.n.n.@.! M @ 1 y M D ! ! ! ! ! D y 2 @ * y A D ! ! ! ! ! D D y y * y ! h f.*.x *.&.",
"q.*.*.q.q.n.*.q.q.n.q...a ! D y 2 ! ! ! *...*.q.*.K ! D @ . * 2 2 2 2 * 2 2 2 2 @ @ @ < 2 2 2 @ @ . 2 2 2 2 2 2 D ! f.n.n.q.f.n.",
"q.q.n.*.Z.n.n.*.C.n.q.f...L ! y 2 x q.q.q.*.c.*.*.! K D @ 2 y y D C D ! D ! ! D W ! K D ! D 8 * @ 2 r D D y y - D ! x q.n.Z.n.f.",
"*.b.*.1.n.6.*.q.z.1.q.q.*.] ! D 2 ! f *.q.*.q.n.! ! W y 2 y y D h ! ! *.K K ! ! q.*.*.x *.K M r * y M *.*.! y * ! D *.f.q.c.q.f.",
"q.q.*.*.n.f.*.q.q.n.@.*.! ! D y 2 D l *.x *.*.*.! ! D y 2 y D ! *.q.*.*.k.q.d.i.f.d.f.*.x l ! D 2 M ! *.q.*.D 2 D ! @.x f.*.W *.",
"*.q.q.q...*.q.f.*.*.q.....C y y 1 y D h K ! K ! D D r y 2 y ! *.*.f.f.f.f.f.n.Z.Z.n.f.q.l x x x - x *.f.f.i.! 2 y ! ! R x W ! ! ",
"! ! ! D D ! ! D ! ! M D y y y 2 X 2 y A ! ! D D y y y 2 @ y ! *.o.f.n.n.f.n.n.f.f.f.x 4.*.*.*.! 1 ! q.f.Z.n.! @ 2 y D L ! ! ! ! ",
"2 2 2 2 2 2 2 * 2 2 2 2 @ @ @ @ @ @ 2 2 2 2 2 2 2 2 2 . @ y ! *.q.f.Z.b.f.i.f.x x f.f.q.Z.*.x ! 2 ! *.u.f.f.! + @ 2 1 2 2 2 2 2 ",
"2 y y D ! ....! ! D y y 2 @ 2 y D D 8 2 y y ! ! ! C y 2 . y x *.x q.n.f.n.f.*.x *.a f.q.q.*.x x 2 ! *.q.4.f.! @ 2 y D ! ! D q y ",
"2 y ! *.....*.*.! *.x M r 2 y D ! ! D y D L ! $...*.! y < y ! x *.$.q.*.q.*.h *.x *.6.q.a x x ! 2 D *.l *.h D 2 y ! h f x W ! y ",
"2 D *...*.q.f.*.*.q...l D 2 M ..*.h D ! *.x q.*.*...*.D 2 y D l x L *.! *.*.&.x ! x x q.! R ! y 2 y ! *.l ! y 2 D ! x *.o.*.! D ",
"2 D *.*.q.f.f.*.q.*.q...D 2 D ..&.D *.*.*.*.1.n.n.@.*.D @ 2 y t M x y ! x x a a L a ! x x ! y 2 @ 2 y D D y 2 @ D ! ! f.f.*.*.8.",
"2 R *.5.n.q.n.*.*.q.6.! D 2 D ....*.q.q.*.*.q.Z.c.l ..x @ @ 2 2 2 < 2 2 2 2 2 2 2 @ @ @ 2 2 2 @ @ @ 2 2 2 2 @ @ ! ! *.n.n.s.q.n.",
"2 D @.q.s.q.*.q.*.q.! ..! 2 D 8.x f.q.*.q.n.n.Z.4...h *.@ 2 y A D ! D D L ! D D y 1 . 2 y ! ! ! ! ! ! x q.q 2 @ D ! f.n.n.Z.n.Z.",
"2 ! q.q.q.n.Z...*.q.*.x ! 2 ..q.q.q.1.q.Z.n.q.Z.6.*...! 2 q D ! x ! x W *.D ! ..R y 2 y ! *.*.L *.*.*.*.h x y 2 ! *.i.q.q.n.Z.@.",
"2 D *.5.n.n._ q.Z...*...! 2 ..q.Z.Z.q.1.q.q.q.1.q.*.! ! 1 D ..*.x q.f...6.*.f.O.D D 2 x *.*.q.n.*.o.n.@.*.! R 2 D x f.b.n.1.*.n.",
"2 K &...4.q.q.Z.q.q.q.K D 2 D ..n.z.Z.q.f.f.*.*.*.@.Y D 2 D ..*.*.f.Z.f.q.f.q.x x D 2 ! x q.q.n.8.n.f.q.*.x ! 1 ! x *.z.n.B.n.q.",
"2 D *.q.n.q.q.Z.z.q.*...C 2 B ..q.*.*.&.*.*.@.*.*.! ! D 2 D ....*.*.f.q.a q.*.x ! D 2 ! *.q.f.f.q.q.q.q.*.*.! 2 D *.&.q.q.n.q.&.",
"2 D ! ` q.*.*.*.*.*...! y 2 D ..*.! *.! *.*.o.$.K ! D y 2 D 3.x x *.*.*.*.q.*.! h D 2 ! ! &.q.f.q.n.n.q.n.x x 2 D x *.*.*.f.&.B ",
"2 y D ! *...x ! *...K D y 2 y ! ! ! ! ! ! ! ! ! D D y y 2 y ! A h x ....x x W x L y 2 ! ! *.f.*...q.Z.n.q.x x 2 8 ! ! x l ! ! y ",
"2 y y D D ! ! ! 8 D y y 2 @ 2 y D D D ! x ! B D 0 y y 1 @ 2 y D D ! ! x x ! D D y y 2 ! x x f.q.*...$.q.q.*.! @ 2 y D D D N r y ",
"2 2 * < * 2 @ @ @ 2 2 2 . @ @ 2 2 2 2 @ @ @ - 1 2 2 * @ X @ 2 @ @ . 2 2 2 2 1 2 2 @ @ W ! x x f.q.*.n.*.*.h ! @ @ 2 2 2 2 2 2 < ",
"! ! ! ! D y * @ 2 y y D ! ! ....! D y 2 o 2 y D D ! ! ! D D y 2 @ 2 t D ! ! ! D q 2 @ ! x x x *.i.*.q.z.f.*.! @ 2 y ! K ! r y y ",
"l K @...*.! y 2 y D l *.L *.$.....*.! e 2 y D ! h l o.*.! d ! q 2 q D ! *.*.L l ! y 2 ! x ! x *.$.*.*.*.z.x ! 2 8 ! *.@.L ! ! ! ",
"h q.*.@...$.D 2 D x ..q.*.*.f.q.*...*.C 2 D ! l $.f.f.n.f.! ! D 2 D ! &.$.n.*.*.x D 2 A ! W x l *.*.*.*.*.! ! 2 ! *.$.*.n.*.*.L ",
"*.*.n.n.*.*.D 2 M ..q.*.*.*.s.f.n.*.*.D 2 ! ..*.f.f.n.Z.f.o.! ! - D ! q.n.f.q.*.x D 2 y B ! ! ! ! *.x x ! ! y 2 x h &.q.f.n.*.f.",
"f.f.Z.b.x ..! 2 D ! q.o.q.f.q.q.z.x ..! 2 D ! *.$.f.f.f.f.*...M 2 ! ! q.q.q.q.*.W ! - y y y D ! R ! ! ! ! y 2 @ *.x *.q.6.q.*.*.",
"f.u.q.q.n.q.! 2 ! ..! 6.8.n.n.q.f.h *.D 2 D ! x *.*.x *.! x ! D 2 D x q.n.n.q.n.! D 2 2 2 2 2 2 2 @ . @ * 2 @ @ ! x n.q.n.n.*.*.",
"q.q.b.*.*.q.! 2 ! x *.q.q.q.f.n.q.x x ! 2 y B ! ..! ! ! x ! D y 2 ! x ..q.Z.n.q.! D 2 y y ! ! ! y 2 @ * ! y 2 @ ! R q.n.Z.q.f.*.",
"q.*.q.*.*.*.! 2 ! ..*.q.q.f.1.n.n.q.h D 2 y y y D D ! ! M D y 2 @ ! *.*.q.Z.q.4.L ! 2 y ! f.c.Z.*.y 2 y *.! y 2 ! ! q.1.*...*.*.",
"*.q.$.*.*.*.! 2 D ! q._ *.f.q.q.q.x x ! 2 2 2 2 1 2 2 2 2 2 2 @ @ D ! q...q.Z.*.*.! 2 ! *.f.q.l.f.! 2 W x *.! 2 ! x *.*.n.&.f.*.",
"x *.q.q.n.8.x 2 D ` $.q.*.$.*.q.n.*.*.D * 8 y y C D ! W ! D y 2 . W *.u.Z...*.f.f.D < *.*.d.n.q.*.D 2 x *.f.! * ! h f.n.q.*.*.*.",
"! *.*.q...R D 2 y ! [ *.*.*.*.*.q...W A 2 r D x *.*.*.*...&.! y 2 D ! *.*.q.*.n.! ! < ! *.*.b.Z.f.! 2 x *.f.! 2 y ! n.*.*.*.*.*.",
"! l ..*.! D y 2 y D ! ..*.! x ..&.! D y 2 D x ..q.q.Z.*.*...*.D * D ! *.n.*.*.*.! *.- ! *.*.q.n.*.D 2 r ! *.y * y R ! L K ! ! ! ",
"D D ! D D y y 2 y y y D y ! ! ! D D y 2 @ D ` q.o.n.q.z.c.o.*.D < B ! *.q.n.! *.! D 2 ! K *.*.f.R D @ 2 y ! y * y y y D D ! B D ",
"2 * 2 2 2 2 2 < 2 2 @ . @ 2 2 2 2 1 - @ @ D ! q.*.q.n.Z.n.x ..! 2 y D ! *.$.*.! ! y = y R ! x x K y @ @ 2 2 2 2 2 2 2 2 2 < 2 2 ",
"2 y y D D C ! ! D y * @ 2 y 8 D ! D y 2 @ D *.*.*.1.f.Z.q...K ! 2 y y D D ! ! D y 2 X 2 y W ....y y X 2 r y M D B ! ! K ! D y y ",
"2 y M ! ! ! ! ..! ! t 2 q D l $.! ..! y 2 D ! 8...*.1.Z.q.*...! 2 2 2 2 2 2 - 2 2 @ @ @ 2 2 2 < * 2 1 y B ! ! ! x ! ! ! K x D y ",
"2 D K f.*.*.*.$...! D 2 D x ..q.Z...*.D 2 D *.*.q.*.z.q.c.*.*.D 2 y y y D D R ! ! ......[ D L D y y 2 D ! ! x q.q.q.q.$.! l ! D ",
"* D *.f.*.q.f.q.*.! D 2 D ..q.Z.q.*.*.D 2 y ! ..*.*.q.n.Z.n.x D 2 y B ! l h x ..x z &.h x &...! ! y 2 D *.*.*.q.n.n.n.*.*.! ! R ",
"2 ! x *...q.Z.f.*.! ! 2 r D ` q...8.h y 1 y D L ..$.q.q.u.q.! y - D L ..h ..&.q.*.q.n.f.q.u.*...! D 2 ! *.*.*.n.Z.q.4.f.*.*.x ! ",
"2 ! h *.*.1.Z.q.h L D 2 q y D D R D y 2 X 2 y y D y ! K M D y y * D ..*.*.q.8.q.f...q.Z.a.6.q.*.! C 2 ! ! *.f.q.q.q.q.f.o.! x ! ",
"2 D ! *.n.n.q.n.l ! ! 2 2 2 < 2 2 2 < @ @ @ 2 2 2 2 2 2 2 2 2 2 2 ! ..*.q.n.q.q.*.*.q.Z.q.q.q.*.! ! 2 ! ! ! q.q.n.q.q.q.f.x ! ! ",
"2 D ! x q.Z.n.q.*.! R 1 y y D ! ! ! x a x ! x ! y ! W ! L D y y 2 ! *.q.q.q.q.*.q.z.n.3.n.*.*.d ! D * M ! Y q.q.n.q.q.q.f.z x x ",
"2 D K f.q.Z.q.4.x ! ! 2 q D ! W *.*.*...q.q.f.a ! h *.l ! ! M y 2 ! x &.f.*.q.8...q.Z.n.q.*.*.f ! ! 2 D ! ! *.q.Z.n.n.8.q.q.x R ",
"2 ! ! *.*.6.Z.*.*.*.! 2 D ! ! q.q.f.Z.q...f.4.q.q.*.n.@.@.*.h D 2 B ! a *.q.Z.q.q.q.Z.6.q.*.*...R ! 2 ! ! ! q.q.q.n.n.q.q.q.x *.",
"2 ! x *.f.q.*.s.q.*.! * D ! *.q.q.q.Z.q.*.*.q.q.n.8.Z.b.f.*.L D 2 A x *.*.n.q.Z.&.&.q.Z.*.o.x ..! L 2 D W ! ! q.f.V.Z.z.q.*.! ! ",
"2 D h ] q.q.q.*.*.x ! 2 M ! x *.*.z.q.n.b.q.*.q.q.n.q.n.*.*.! ! 2 ! h ..n.q.1.*.f.f.8.*.s.*.*...! D 2 ! ! ! 4.q.q.q.6.n.1.*.x ! ",
"2 y ! ` *.! x x h ! D 2 D x ! *.*.q.n.Z.n...q.q.*.f.*.*.a x ! D 2 y ! ..*.*.*.q.4.q.q.8.*.*.x *.! C 2 M L *.*.*.*.f.f.*.@.x h D ",
"2 y D L ..! R ! ! D y 2 y D ..*.*.q.q.f.q.q.q.f.q.*.&.! ! ! D y 2 y ! ! ..f.x f.x q.f.*.! x ! ! ! y 2 y D ! *.*.x *.*.*.x x D y ",
"2 y 0 y D L ! ! D y - @ 2 y D L ! ! ! ! @.! ! *.! ! ! ! D D y 2 @ 2 q y D D ! ! D K ! B D ! B D y 2 @ * y D *.x ! *.O.x x D r y ",
"2 2 2 2 2 2 2 1 2 2 @ @ @ 2 - 2 < 2 2 2 2 2 2 2 2 2 2 2 2 2 2 X @ @ 2 2 2 2 1 2 2 2 2 2 2 2 2 * 2 @ @ @ 2 2 2 2 < 2 2 2 2 2 2 2 "
};
