/* XPM */
static char *bf79c851391b442d825f7ad75c438803St8hv37TEaYE6RhX[] = {
/* columns rows colors chars-per-pixel */
"64 64 26 1 ",
"  c black",
". c #010101",
"X c #020202",
"o c #1B1B1B",
"O c gray11",
"+ c #1D1D1D",
"@ c gray17",
"# c #2C2C2C",
"$ c #2D2D2D",
"% c #343434",
"& c #353535",
"* c #3F3F3F",
"= c gray25",
"- c #414141",
"; c #4C4C4C",
": c gray30",
"> c #5B5B5B",
", c gray36",
"< c #5D5D5D",
"1 c #7B7B7B",
"2 c #7C7C7C",
"3 c gray49",
"4 c #7E7E7E",
"5 c #8B8B8B",
"6 c gray55",
"7 c #8D8D8D",
/* pixels */
"                                                                ",
"                                                     ====       ",
"    ====*===    >,,,,,,    ========  ==,,,,,>,,,,   #=,=,,,,,,2 ",
"  ====,,,,,==  O=262,,6,  #=====,2=  ##=265=,,,,6,  #=6#*266=6, ",
" ==*=,,>,,,,2  O#===,6,,  ##=,2==,=  ##=>>,=,,,,,,  ##=##=====, ",
" ===,,,,2,,,,  OOO##=,,=  O#=1,=,==    =,,=,,,,66,   ## ######= ",
" ==#=266>,,==  OO===,,>    O#=======  =,,=,,,,6==6,             ",
" #=##=*=>===#  OO###=,6,   OOo##,2==  @=2#==,,,,#=6,    ####### ",
" O##=,,,>2==    OO##=6,,  OO====2,*=  ##=###=266##=6=  #####=##=",
" ==,#=16=,,,,   OO#===,,  OO##2=====   ## ###===###==  ##=======",
"  #=@@*=#=,2,,  OOO###=6, O#=2,=###=  #=26# ########=  #*6,*=,,=",
"  O#######===,   OOOO#==,  O#===#O#=   #== #######===  #=2#####=",
"  OO#=,,,,###=              OO##O##      ####o   ###   #==##====",
"     #=266,                                            ##=#=6,,*",
"   =,,,,==,,   =======*==          =,,,,                O##=266=",
"  =#=266,#=,  ###=,2,2,2=    =,;,,;#=266,,   ####====    OO===*=",
"  ###===,#==  OO#=,,=,=,=  =,,;,65,;;,==,6,  #=====6==          ",
"  ####@#=     #O##=======  #==,,,=,=,=;#==;  O#=,6=2==    =,,,, ",
"  #####=      OO#O######   #=#=2;#=2=,,,,,=  O#=62====   =#=266,",
"       ====                ####==##=#=222,;   O#===#==  ==,,,,=,",
"      #=,6=         =,,>,   ##O@@#O###===,,   OoO#===   *#=266,=",
"=,,,, #=62*=======  #=266,  OOOOOO##O####==             #@#===, ",
"#=266,##======,6==  ##===,       OOOOOOO@#=             ######= ",
"=,,,,,O@##====62==  #####=                    =,,=,,,,   ####=  ",
"==,,,,OO##===#====                         =,,,,,,=62,          ",
"#=*,,,,OO##==####               ,>2,2222  ==,,,,,,==>,,         ",
"###=266,OO##            ;,,;   =,,26,1,,  O#=62,2,,>,,=  =*,,22 ",
"OO#O==*,oOO=     =;,>,,=#=6,;  #==>,2,,,  #O==,,,,62,,  =,*,,2,,",
" OOO###*==      %;,,,;=;===2,  #=#=6,,==   OO##=#==,,,  ==@=6,,,",
"    O#O##        =,2,=,=,=,#=  O##==,2>,2   OoO##=##==  ==#==,==",
"          =====  ==,;*,,==,==    ###=,==,,              =##@#===",
"=,,,,    #=====   ===;,,==2,      #==,=,,2              O#==,== ",
"#=256>   #=,6==   %%%=;;=,,=        #=#=6,   =,,2222    OO##=#= ",
"O@*==,  =#=62==       %%;;,#  =,,2   @#==,  =,,=,,2,     OOO##= ",
"O#==== #=O#===          %===  =*,,2   ###   =,,#*6,222          ",
"       #=OO##  =,,,,          ##=6,2        ===#===,>2          ",
"22222  O#===   ,,,,6,         ##==,,2      =,,2O###=6,   ,=,,222",
"666662 OO##=  #=266>,  =,,,,   #*,,2,,22   #=6,,OO#==,  ==,,22,,",
",,,,,6   o## =,,,,=,=  =,,,,,  ##=6,,,2>   #==,,OO###  ,2226,,,,",
"=====,       #=266,=   =,,,,,  =#==,==,,2   ##==#OO#  =2,,,*,,==",
" ##=         ##==*,    #=266,  ####=22,2,       #OO#  #==,,#==  ",
"       ,,,    ####=   =,,,,=,  #==,,,,2,,2        ##   ###=     ",
"  266,=,66,          =,,,,6,=  O##=,,,,,=,  =,,2                ",
" #===,=,==,          #=266,,=   O#====,=,,  =,=,,           =,,2",
" O#@#=*=##=   ====  =,=,,>,,,     Oo##=,==  #=,,22  =,,21=,,122,",
" ==,,,       #=,6=  =,=,>,,,,,      O==,    #@=6,2  ==,,2,212,,,",
" *=266,,    ======  #=#*266,6,       ##=   O=#==,2  #===,,=,,2,=",
"  ==*=     ##=,6==  OO##===,,,,,           ##=,,2,  O###=6#=6,= ",
"      oOOO ##=62=    OO####=6,66,          #O#=6,,   OO#==#==,  ",
"  OOo##==  #O#===      =,,,,,,==,   =,,2   O##==,=    OO##O##=  ",
" =,,,,=,    O#==*==    #=266,=,#=  =,,2,   O=###=,,             ",
" #=2=,,,,    o=====    O#===,6,>   =,,2,    ##=#=,,             ",
" O#=#=266,   ##====    OO###==,,   *,,2=     ####=,  ,,    ,,2,2",
" O##O#===,   O#=,6=      OO##@==   ==,,2,,    O###= #=6>  ===,,2",
" OOOOO###=   O#=62=                ##=6,=6,   OOO#= #==,  O#=,,2",
" O###=#O#=   OO#===  =*==          O#==,==,    OOO  O##=  #=,,22",
"  O#O=        OO##  #=,6========    O##=##=1              =,,2,,",
"        ====        #=62===6=6==       #=6,,              *,,2>,",
"      #=,6====      ##=======2====     #==,,  =,22=2=,,2  #=6,==",
" ==== O=62====,,,,  oO##2=,6=========  ###=   =6,,,,#=6,  #==,,2",
"#=,6* O#==#=,=,,,,,  #O===62=6====6==  OO#=  =,=,,,,=,,2  O#=,,2",
"O=62*  O###=6#=266,  #O##====2====2==   OO   #=@====#=6>    #=6,",
"O#===   OO##=O#===,  O#O####====#====               #==>    #==,",
" OO#      OO#OO##@=   ooOO#@###O####                O##=    O##="
};
