/* XPM */
static char *_fc7eb091457451abce565088749d4b1AnRwBy4if6jYoq7J[] = {
/* columns rows colors chars-per-pixel */
"64 64 237 2 ",
"   c #271F0A",
".  c #261F0C",
"X  c #271F0C",
"o  c #271E0D",
"O  c #2A1F0D",
"+  c #281F0E",
"@  c #2A1E0E",
"#  c #27200D",
"$  c #27200E",
"%  c #28200B",
"&  c #29210C",
"*  c #28200D",
"=  c #28220C",
"-  c #29230D",
";  c #28210E",
":  c #29210E",
">  c #29200F",
",  c #362C13",
"<  c #372D14",
"1  c #382C12",
"2  c #382C14",
"3  c #382C16",
"4  c #3F2F16",
"5  c #3F2F18",
"6  c #3E3016",
"7  c #3F3116",
"8  c #3F3117",
"9  c #412F19",
"0  c #403016",
"q  c #403017",
"w  c #473716",
"e  c #4A3717",
"r  c #473916",
"t  c #473817",
"y  c #483816",
"u  c #483817",
"i  c #413118",
"p  c #403019",
"a  c #403218",
"s  c #483719",
"d  c #4A3719",
"f  c #483918",
"g  c #493918",
"h  c #493A19",
"j  c #49381A",
"k  c #553D1B",
"l  c #563C1B",
"z  c #543B1C",
"x  c #543B1D",
"c  c #563B1D",
"v  c #563B1E",
"b  c #533C1C",
"n  c #523E1D",
"m  c #553C1D",
"M  c #543D1D",
"N  c #563E1C",
"B  c #553C1E",
"V  c #543D1E",
"C  c #573C1E",
"Z  c #563D1E",
"A  c #563D1F",
"S  c #553E1E",
"D  c #5C3F1D",
"F  c #5C3F1F",
"G  c #5C3F21",
"H  c #5E3F20",
"J  c #5D3F23",
"K  c #5E3F22",
"L  c #5B411E",
"P  c #5A401F",
"I  c #5D401E",
"U  c #5E411F",
"Y  c #5B4120",
"T  c #5B4022",
"R  c #5A4122",
"E  c #5D4020",
"W  c #5E4121",
"Q  c #5D4022",
"!  c #6B4723",
"~  c #6D4723",
"^  c #6C4923",
"/  c #6B4924",
"(  c #6B4926",
")  c #6C4824",
"_  c #6D4925",
"`  c #6E4824",
"'  c #6F4925",
"]  c #6D4A24",
"[  c #6C4826",
"{  c #734B27",
"}  c #724C25",
"|  c #724C27",
" . c #744D26",
".. c #754E27",
"X. c #734B28",
"o. c #764B28",
"O. c #764B29",
"+. c #734D28",
"@. c #734D29",
"#. c #744C28",
"$. c #744C29",
"%. c #754D29",
"&. c #744E29",
"*. c #754D2A",
"=. c #7D4F2B",
"-. c #7F4F2B",
";. c #7D4F2D",
":. c #7F4E2D",
">. c #7E512A",
",. c #7E502C",
"<. c #7E502E",
"1. c #814F2A",
"2. c #814F2C",
"3. c #804F2E",
"4. c #814F2E",
"5. c #80502A",
"6. c #81512B",
"7. c #80502C",
"8. c #81512D",
"9. c #82502D",
"0. c #81502F",
"q. c #87572F",
"w. c #86592F",
"e. c #89582F",
"r. c #88592F",
"t. c #875731",
"y. c #8B5730",
"u. c #895732",
"i. c #865930",
"p. c #865932",
"a. c #885830",
"s. c #895830",
"d. c #895931",
"f. c #895A30",
"g. c #885832",
"h. c #895933",
"j. c #8F5B33",
"k. c #8F5C31",
"l. c #8E5D34",
"z. c #8E5D35",
"x. c #8F5E35",
"c. c #905B33",
"v. c #905D32",
"b. c #915E33",
"n. c #915B35",
"m. c #905C34",
"M. c #915C34",
"N. c #905C35",
"B. c #915D35",
"V. c #925D35",
"C. c #995F37",
"Z. c #9A5F37",
"A. c #9D5F36",
"S. c #9B5F3A",
"D. c #9D5F38",
"F. c #9F5F39",
"G. c #9B6036",
"H. c #9A6038",
"J. c #9B6038",
"K. c #9C6139",
"L. c #9E6039",
"P. c #9C603B",
"I. c #9E633B",
"U. c #9F643A",
"Y. c #9E653A",
"T. c #9F633E",
"R. c #9E643C",
"E. c #9F643C",
"W. c #A0653B",
"Q. c #A1633C",
"!. c #A3633D",
"~. c #A1633E",
"^. c #A0653D",
"/. c #A2643D",
"(. c #A0643F",
"). c #A3653E",
"_. c #A7683D",
"`. c #A7683F",
"'. c #A76A3E",
"]. c #A8693E",
"[. c #A76940",
"{. c #A76942",
"}. c #A96840",
"|. c #A86940",
" X c #AA6941",
".X c #A96A41",
"XX c #A86842",
"oX c #A96842",
"OX c #A96943",
"+X c #B66F43",
"@X c #B36E44",
"#X c #B46F45",
"$X c #B66F45",
"%X c #B46F46",
"&X c #B66E46",
"*X c #B37043",
"=X c #B47043",
"-X c #B57343",
";X c #B37045",
":X c #B27244",
">X c #B47144",
",X c #B57144",
"<X c #B57245",
"1X c #B57046",
"2X c #B57047",
"3X c #BC7847",
"4X c #BB7748",
"5X c #BB7949",
"6X c #BC7849",
"7X c #BD794A",
"8X c #BC784B",
"9X c #C57B4A",
"0X c #C77B4A",
"qX c #C67C4B",
"wX c #C77D4C",
"eX c #C97B4B",
"rX c #C87C4A",
"tX c #C87C4B",
"yX c #C87B4D",
"uX c #C97D4C",
"iX c #CF7E4F",
"pX c #D17F4F",
"aX c #D07F50",
"sX c #D17F50",
"dX c #D07F52",
"fX c #CF824E",
"gX c #D0804F",
"hX c #CE8050",
"jX c #CF8150",
"kX c #D18150",
"lX c #D18051",
"zX c #D28051",
"xX c #D38151",
"cX c #EA8C56",
"vX c #E88D58",
"bX c #EA8C58",
"nX c #E98E59",
/* pixels */
"O * * # * * * * * * * * * * * * * * * * * * * * * * * * * # X * * * * * * * * # * * * * * X X * * * # * * * * * * * * X * * * * ",
"* q q 8 m m Y E E m E ) F #.) #.#.#.#.#.7.#.7.d.#.#.7.#.7.+.#.,.* 4 q q q p q m E m u u u u u u u m u u m m u u u m m m u u z u ",
"* q e k E m m m m ) E E ) #.) #.{ ) 7.7.#.#.r.7.d.7.d.#.#.7.o.7.* 4 u q 9 q m Y u z m m m m m E u z m s u m E m m I s m z z u m ",
"* q m m m m m ) E E m m ) E E 7.#.d.G.} 7.-.#.2.d.v.d.d.d.#.#.7.* p m m E 8 E m m m m m k z P m F m m E E m m Y z I E m E m E E ",
"O u 8 E F E Y m I ) m m ) F E #.#.5.#.7.7.5.d.d.m.m.m.7.7.d.#.7.* m Y m E q q m E ) E E ) E E E ) #.{  .) 7.,.#.) ^ #.) ) ) m m ",
"* p m E Y k m m m #.#.2.E 2.#.^.m.v.7.,.,.r.d.m.m.m.d.7.d.d.#.7.X m m m E m q ^ r ) ) )  .+.#.#./ 7.d.d.E.J.q.j.) E  .E #.m m E ",
"* w m Y E m ) ) m ) E #.o. .) E E.m.m.d.d.d.J.m.d.m.J.d.d.7.#.7.* E m m E m q u ) ) #.#.) 7.d.d.E.E.G.E.m.m.r.m./ #.7.+.#.) #./ ",
"O m E m z ) ^ ) #.#.o.) d.7.) E 7.].E.m.v.i.J.J.d.d.d.d.5.#.#.7.* E m ) m k ) m u E ) { 7.Q.J.E.m.m.d.m.#.7.m.m.m.#.) 7.#.E #.z ",
"* I u z F u m ) E #.7.) #.d.A.#.E.m.m.d.m.#.#.7.d.K.m.d.r.7.#.-.* E #. .#.) 7.-.m s u ) ) 7.7.#.d.5.-.m.m.m.E.7.m.m.l.2.7.#.7.m ",
"X m I m z m ) #.#.7.) #.#.{ 7.^.m.m.m.J.m.m.m.d.J.}.d.d.7.+.#.7.* m 7.d.d.E.J.d.m.z m ) ) J.i.m.d.7.d.d.E.J.E.E.D.E.#Xd.d.d.E ) ",
"O E E m m ) E ) H #.#.7.#.} 7.m.d.,.7.d.d.m.m.d.J.d.d.7.-.#.} 7.% E E.J.E.m.m.r.m.E J.m ) m.q.m.d.E.S.E.m.m.#XtX#XY.q.#X#XE.7.E ",
"O E E ) ) ) m m ) #.#.7.7.#.7.7.d.7.7.v.u.m.m.v.d.i.7.{ { 7.#.7.* E K.#Xj.l.m.E.m.l.m.E.J.E.#XE.m.m.m.^.J.E.sX#XqX#XK.d.#X#XE.E ",
"# ) m m ^ E 7.7.o.7.#.#.-.r.d.7.i.G.E.^.d.d.7.E.^.d.d.7.#.#.7.7.* #.Q.7.#XsXsXJ.6XsXsXJ.3X7.sXsXgXgXJ.6XsXjXS.6X7.gXsXZ.3X7.E.#.",
"* m m ) E { ! ) #.7.i.7.7.7.d.J.E.6XE.6X}.E.d.d.d.7.}  .7.#.#.7.* F m.E.[.#XtX#XsXsX#XtX#XsXkX6X#XtX#XsXiX#XtX#XsXjX5XT.7.Y.m.E ",
"O 4 m ) m m ) E 7.5.7.7.d.d.7.d.q.m.m.m.D.m.J.E.#.#.{ #.7.2.#.7.* E E m.E #.) Y.E.,.j.m.E.E.7.m.m.m.m.W.7.m.7.l.m.7.m.m.) m.E E ",
"* * * % * * * * * * % * * < * 2 * O * # * * * # * * * * * * * O * q q q q m m m E E ) ! ) E u * * * * O * * X # % * * * * * * * ",
"7.E.m.v.7.#.7.#.#.) m E m m m m * m.m.m.E.J.J.J.m.J.E.Q.J.J.E.K.E.}.}.}.[.E.J.E.}.}.[.}.}.}.}., * 2 E.E.J.E J.l.J.Z.d.m.m.d.d.7.",
") 7.E.m.m.o. .7.) ) #.m F m E E * m.m.}.Z.J.m.m.m.J.J.,XE.J.,X}.}.}.}.#X#X#X#X#X#X#XtX#X@XtXtX^.* }.tX}.tXJ.#XS.m.m.K.d.d.d.d.7.",
") m.7.) E.7.) #.) #.) P E E E m * d.d.m.}.`.J.J.d.}.}.}.tXtX}.=XtX#XvXsX}.J.}.d.jXsXsX}.sXvX}.E.* }.tXjXsXsXsX,.m.#XJ.d.m.d.d.d.",
"G.+.E.m.m.) ) m ) ) ) ^ H E E E * d.d.7.d.d.-.7.7.m.E.E.J.E.K.m.=X;XkXsX#X#X;X#X,X@XE.qXtXsXeXJ.* }.#XvXtX#X4X#X#Xm.#Xd.m.l.d.d.",
"7.E.m.m.l.#.#. .) ) H Y E E m u O i.#.#.7.r.#.7.{ 7.}.}.}.}.}.}.`.}.}.kX}.}.#X=X;Xd.d.tX#XsXD.E * }.tX}.tX0X;X;XJ.J.J.m.d.m.>.r.",
"d.#.7.7.7.-.#.E ) m ) E m E m I * q.7.:.#.}.}.#X@X,X#X#Xd.,X#X,Xd.J.E.d.#X#X7.d.r.7.7.#X6XsX#XJ.* }.tXsXE.7.m.#XJ.Z.J.m.m.d.E.m.",
"7.-.#.7.7.) m E m ) ) E E m w m * +.7.m.E.J.Q.7.d.#X#X#Xd.#Xd.d.7.E.q.7.r.7.{ 7.#.7.7.i.#X#X#Xd.* }.#XsX#X#X=Xm.#XJ.m.d.d.d.7.E.",
"#.5.7.7.) m E m ) E E E E E m m * #.#.#.#.F #. .,.7.d.d.7.d.7.7.7.Z.) #.#.) m 7.,.m.m.d.,.#XE.7.* }.#XgXyX=XkXE.D.m.m.{ E.E.m.7.",
"E.m.7.) #.#.#.F E I Y E m E m e * 7.E.=X7.d.7.7.7.#.2.#.F #.7.7.m.=XD.m.7.#.#.m E 7.{ #.#.#.#.{ * ^.sXkX;XsXm.J.J.J.m.-.7.7.Y.Q.",
"7.E.) ) ) m E E E ) E m E m k m # r.#X#X@Xd.d.d.#X7.7.7.o.7.m.m.J.E.m.m.m.m.1.7.7.m.E.J.W.m.7.#.O J.sXvX#X#XY.#XJ.m.m.d.d.m.7.7.",
"m.7.m E m #.^ E Y E E m u u m m * J.,XsX6X#Xm.#XsXm.,.7.7.m.E.J.E.i.E.J.E.7.m.d.E.*X}.}.#.7.7.d.* E.#XsXtX}.#XJ.J.m.d.7.7.#.Q.d.",
"{ Q.E m E #.m m E m z m m k u u * F J.}.}.}.#X#X;XsX,X].}.jX}.}.].}.}.}.}.}.#X#XuX#XJ.d.7.7.#.d.* }.sX}.,X}.#Xm.J.m.m.m.m.d.7.-.",
"2.) ) m m E z m m E m E u m u u * 7.m.}.E.^.E.#X#X#X#X#X=XsXsX#X#Xj.}.}.}.tXsXiX#X}.d.d.d.7.q.d.* }.#XsXsXsX2.m.#XK.q.m.d.-.d.7.",
"o.) E ) ) b E m H E Y m m e u u 1 #.2.m.}.d.E.E.}.}.#XJ.}.sXvX#XeX#XtXiXtXsXtX}.d.J.J.}.}.m.d.d.# }.sXvXsX#X#X#Xm.#Xm.m.d.d.d.d.",
"#.#.) #.E ) E H E E w m m u u u 2 #.7.#.7.d.m.}.d.E.E.;X#X@X}.}.}.}.#XJ.E.#XJ.Z.m.m.m.J.J.}.m.m.* }.sX,X#X}.J.Z.J.m.K.d.d.u.d.d.",
"2.#.) ) ) ) E H m E m u z u m u * 2 #.7.#.#.7.#.7.q.D.^.}.[.}.}.E.E.E.S.J.E.E.J.j.J.J.J.E.m.m.v.* }.E.}.}.J.J.J.J.m.m.q.m.m.d.2.",
"* * * * * O # * * * * * * 2 2 5 O * u E ) ) ) F E m m m 8 q 8 q * * * * * * * * # * * % * * * # * 2 < q q u u u p q 2 2 2 * * % ",
"* m m ^ k E ) d.) o.#.#.7.#.#.7.7.d.d.m.d.J.Z.}.tXtX@XE.^.J.7.E * u u u m E m m m ) E / #.) #.#.m #.,X#X}.#Xm.m.tXtX#XQ.E.J.7.}.",
"* m m m E E ) Y ) d.#.7.7.#.d.d.#.Y #.m.d.J.J.m.}.=X`.tX[.tXS.@XX 4 j m s m H m ) m ) #.) o.7.#./ ) j.#X#X#X=Xm.;X#X}.qX}.tXK.#X",
"O E m m E E ) F / ) ) 7.2.}.7.}.G.! ) +.d.d.m.#XE.J.}.tXsXvXfXkX* p q q m m m E ) ) ) m / m #.#.7.7.}.m.K.#X#X#X}.#X}.0XsXvXkXsX",
"X m k E E z E Y Y m d.) 7.7.d.7.}.) E d.q.m.c.}.#X#X}.#XsXtXvX6X* q j m m E m ) #.7.}.7.d.7.z d.2.5.}.}.d.7.m.=X#X#X}.#XsXuXcX6X",
"* m Y E H 4 m k E E  .) #.#.2.7.7.[.}.m.m.#Xm.#Xm.=X#X#X}.tXtX#XX q m u z Y ) ) m d.7.i.7.d.5.7.}.}.d.7.7.7.}.m.J.#X#X#X}.tXtX#X",
"* m m E E m r z E z ) 7.5.d.7.#.7.d.}.}.i.}.,X#X,Xm.}.tXsXQ.7.m.* 4 s m m E 7.7.d.,X#X`.#X}.d.2.}.7.7.}.[.i.7.d.}.m.J.#X}.#X#XQ.",
"* m m m E ) E ) Y ) E 7.E #.d.#.7.7.d.d.i.7.#X#XJ.J.}.#XsX#X#X#X% q q m m m d.r.7.m.#X#XvXtX}.d.2.7.}.}.d.7.7.d.m.m.#X#Xr.#XpXm.",
"* u z m m m ) E E o.E E E 2.i.E E ) ^ +.d.d.}.7.j.#X#X@XkX#X;XsX* u E 4 m ) ) r.d.}.m.uX#X7.d.}.7.#X#X}.#X,.d.7.m.#X#X=XsX#X#XjX",
"* u s m m m E E ) #.) E H E m m Y ) / ) o.z 7.J.m.m.=X#Xi.#XsXj.* m E m m m ) +.7.r.d.d.d.7.}.7.#Xl.#X#XtX#X}.#XS.J.}.=XsX#X#X#X",
"* q j m m E ) ) Y E ) #.d.#.E ) ) ) m ) m #.7.2.m.m.J.;X}.#X#XE.* m z #.) ) E z m 2.) m z i.}.#X7.].m.J.#X#X#X#X,Xl.}.tXsX#X,Xj.",
"* q m u m H E E E m E E E m m ) F ) #.) #.7.m.m.m.m.E.#XJ.#X}.#X* m m E #.) ) ) q.d.7./ m z 7.7.+.5.d.}.}.m.J.#Xm.#X,X#X}.tXtX#X",
"* 8 u m E m E E E m m m E E m d.7.7.r.7.d.m.d.m.m.m.}.5.`.#X}.#X* q z ) ) d.5.d.7.d.r.) 7.7.d.#.7.d.}.6Xd.6Xd.].#X#X}.#XjXtXvX6X",
"* p q q m q m m E E u k E m #.#.7.E #.d.,.d.m.q.m.J.}.#X2.#XsXd.* p m ) / o.m ) #.7.) 7.7.].7.}.}.m.m.d.i.d.m.#XE.J.].tXkXvXsXsX",
"O q u m u m u k E m ^  .) #.7.#.E E 7.d.d.d.n.m.m.J.}.}.7.7.}.7.# q q m m ) ^ ) m d.#.2.7.#.d.d.m.m.v.m.d.J.J.m.}.#X}.tX}.uXJ.#X",
"* u u j m I E m m ) H ) #.! X.E m #.E 7.7.2.m.l.m.l.}.`.#X7.7.E * q q q m m m ) ) #.{ #.7.#.#.7.-.d.d.m.d.J.Z.}.tXtX#XE.^.J.7.}.",
"* * X * % * * * O * * * * * * % * O * * * * * * * * * * * * * X * * * * * * * * * * * * * * * * * * O * * * * * * # * * * * * % ",
"m.J.m.5.7.7.m.m.yXeX#XE.E.J.7.}.O ) ) E E #.) E.Y.7.m.j.E.E.7.m.m.v.m.^.7.m.7.m.m.7.j.m.! m.E E X 2.7.d.d.,.#.5.d.7.q.d.t.c.m.J.",
"d.d.J.d.q.d.,Xm.#X#XE.uX}.tXK.#X* #.#.E Y 7.#XtXJ.6XkXsXE.E.^.}.#XwX#XsXZ.6XgXpXsXsX6X=X#XE.m.E * -.7.7.7.d.7.7.7.d.#.d.d.m.m.d.",
"7.d.d.d.7.d.m.v.E.J.D.tXsXvXsXsX* E E.m.m.q.d.E.,XE.kXT.J.#XtX#XsXsXK.6X;XE.sXE.sXsXsX#X6X,XE.#.* 7.#.#.#.#.#.7.7.#.d.7.d.d.m.m.",
"m.m.m.7.d.m.d.m.#X#XE.#XsXqXvX4X* ) d.E.J.j.m.K.m.m.#Xm.^.J.m.m.#X#X,XE.m.m.,Xm.kXE.sXsX#X#XE.E # #.#.7.7.7.#.d.d.d.#.7.7.w.d.7.",
"7.d.m.d.7.d.J.J.E.=X#X#XE.tXtX,X* I E #.! 7.J.Y.E.J.E.J.m.d.d.E.J.#Xm.l.E.J.E.Z.=Xm.,X^.d.Q.7.Y * ) ^ #.) 7.7.7.) 7.d.d.2.r.d.7.",
"d.7.7.7.d.m.J.J.m.E.J.+Xm.#X#XE.* m E Y E #.d.d.Q.d.d.E.J.m.m.E.J.Q.K.G.E.J.E.J.T.J.^.d.,Xd.F ) * Y #.#.E #.7.#.#.) 5.7.d.{ d.r.",
"7.d.7.d.2.7.7.J.m.k.#X#Xd.#XiXj.* E m E E E Y #.) 7.J.#.7.#.5.m.m.m.m.m.E.m.J.Q.E.J.E.;Xd.#.7.m * m ) ) ) ) #.#.#.-.7.-.7.#.#.7.",
"d.7.2.i.7.i.7.7.m.#X#X@XsX#X#XsX* E m ) m m ) ) 7.:.7.) ) ) #.{ 7.S.#.7.#.7.m.m.m.#.) -.#.F  .m * Y ) ) #.^ ) 7.) 7.! #.#.#.#.#.",
"d.r.2.5.d.7.d.d.G.K.E.#XsX#X#X#X* E m m E m ) ) m 7.7.E E 2.) F 7.#.) ) ) #.#.+.) #.7.#.#.) #.) * m E ) ) E ) #.) E  .) ) ,.7.7.",
"r.#.+.i.d.r.d.d.d.m.v.tXkX#X#Xm.* m m m Y m m ) u ^ ) ) E H ) m E ) Y E ) ) E ) ) Y E ) #.) ) H * u ) E m ) I #.E #.^ #.#.7.#.7.",
"7.#.d.{ 7.7.7.7.d.l.r.d.#X=Xd.S.* m E m E Y Y m F ) E Y ) E E E ) ) ) E E ) m F ) ) m E / E E m   m E ) m E ) E #.E ) ) ) #.) ) ",
") #.#.7.2.7.+.#.7.7.d.7.l.#XE.d.* q k m E E F m z m m m m m E m E m m E E m m E m E F ) ^ ) E E * j u E E m m E Y E #.) #.+.) #.",
"~ 2.{ 7.7.7.#.d.d.d.d.7.d.E.#Xd.* q u m 8 m m I j m m b z m m E u m z u u m E m m E m E m m E m X m m E m m E E ) m ) E ) ) Y #.",
") #.7.) 7.-.7.#.5.d.7.7.7.m.r.d.* 8 q q u p u m E m u u s u w u j m u u m m u u u m m m e j m u # u s z m m Y E m m m E E E ) E ",
"* * * * O * * # * * O * O * * * * * % * * * % O * % * * * * * * * O * * # * * % X O * * * * * * * % * O * * * * * * O * * X * * "
};
