/* XPM */
static char *_089183f366d4180d06ce499cc9c05784Yc93ht1dmSreAdF[] = {
/* columns rows colors chars-per-pixel */
"64 64 27 1 ",
"  c gray17",
". c #2C2C2C",
"X c #2D2D2D",
"o c #373737",
"O c gray22",
"+ c #393939",
"@ c gray28",
"# c #484848",
"$ c #494949",
"% c #535353",
"& c gray33",
"* c #555555",
"= c gray39",
"- c #646464",
"; c #656565",
": c gray40",
"> c #6F6F6F",
", c gray44",
"< c #717171",
"1 c #7B7B7B",
"2 c #7C7C7C",
"3 c gray49",
"4 c #8B8B8B",
"5 c gray55",
"6 c #8D8D8D",
"7 c #989898",
"8 c gray60",
/* pixels */
".#...##########.###......#.###.#...#@########.###......#.### ##@",
"OO#oO##########@##-OOO#O#-##@OOO#O##########@###-OOO#O@#OO###@##",
"##---###OOO#O#------@O--3#--333-3-3----###--------#O-O--########",
"----#--333-3-3#----------#@#-#=-------####-=#-------------####O#",
"3#33###-#------------#---##-#---------#-&,,5331,31-@--3333#33333",
"----##-#-------------##--O####-&&--#-#@@-@--->,,333,&,,---------",
"----O####-&&-=-=-#-----#--------3-#######--,,,,,31,,,&----------",
"-=--O####-&&----@-#----#-----=-&&###OO#O------#-#=---#==--------",
"&oOO#-.O###---##OOO####O-O#OOOO&#O#@#O###---##oOO####O-##&OOO#-.",
"#####-3-33O###33333#33333#O--&-##-3=3-#35###33333#33343&O--&-#--",
"#o###-,&,-#####----O------o-&&#-#----,,,3##@#----O----3,O-&&#-O#",
"-#--#&-,,,###-------------O&####---#-,-,5##------3-3-,3-O&####O#",
"---#OO---,#O#&-&&-----&&--OOO@O----O---,,O#&-&&,33,,-%--OOo#O#--",
"---------#-O#&&&&&&&&&&----####---==---#-O#&&&-&&&&&%----####---",
"----O--=--#OO#Oo##O#OO-OOOo#O##---O-----#OO#OO#&O#OO-OOOO#O##@3#",
"---#-O#3-33#333333#OOOOOOOO#######@##3-33@333333#&3-#3577,-&-#--",
"O##--O--#---------#-3#-3-3#333-333-O-,&,-,,=----#&->,,333-13##,-",
"##---OO-----------#-------=--#----O#O->,,33133--#--,-,53,-&,,#-=",
"-&---O------------#------=--#-----##----,,------#----,,,,-,--###",
"OO#&#O----#-#-----#---------##----#O----@-#-----#-#-#-,-#-O,o##-",
"oOO#OO#-#OO#####@@-##O####O#O####OOO#-#OO###@###-####o@###-@OOO-",
"-#-OO#O-------o#--------OO#3-33-3333&-------O#-----333#@##oOO#-#",
"-3-3-#35-------#--O--O-O---,&,,%,-=,3--------#-,&33@-O,#-3453&--",
"---=,,,3------##----O#O---O-,,-,,,,-,---=---&&--,-O#o,,#,,,&,3--",
"--#-,-,5--=-OO##---#-OO-#@=------,,&,&----oo&&,--#-OO-#O---,-,--",
"--O---,,O#OO#OOO-#O-#-###---=--#---&%#O#OO&OOO-#O-#-###O--&#&,&-",
"####O#O-O###-3-3-#33333---#-----#-3-3-@35#-3=3-#35777,,o--O&&&#o",
"&--#--O--oOO--=----------------,,----,,,3O----,,>333-,,---------",
"&----=O---OO--#-=-=---#-O----@-----@-,-,5O--#-,-,53,#-O-=--@----",
"&&---###---o=-O=------#-OO---O-&--=O---,,O--O---,,,,#-OO---o----",
"-###OOO#o#-O#OOOOOO####-O---=-----#-#--#-O#OOOOOO####-O-------O-",
"#--333-3-3#--------##--333-3-33----@----&553313--##--333-3-33#--",
"###-#---------=----####-#--------------#---------####-#------#--",
"##-#------#------##-##-#-----------&-##&#------##-##-@-------O-#",
"O####-&&--O-=-=--########------&&-&OO#O#O------########------O##",
"OO##OO-###OOO#O####=#OOO@####O#-###oOO#O@###-O@##-#OOo#####O#O#.",
"#O-O#O#--333-3-3--#-O#-OOO#-##-#--333-3-3#-O----#-O#-OoO#-##-#@@",
"--OO###@#-#--------#-#--OO--##=###-#-----=-=-#---#-#--OO--##----",
"----&###-#-------#-###O-##-----##-#---------O--#-###O-##-------=",
"=---@OO####-&&---####--O---O##-O####-&%----O#@-##@#--O---O##----",
"-#--#OOOO###########O-=--####@-#--#OOOO###########O--=,&&&&&,&-#",
"-3-3-#35#333-333-O--&-#=--------#-OO-3-#357733-O#OO-3355557753,5",
"----,,,3---#----O#--&-#--##-----------,-,,,3--O##--O#--##-------",
"--#-,-,5--#-----##-&%@---##-----=#-O--,-,-,,--##----o--##----OO-",
"--O---,,=-##----#O&####--##-----#-OO----,,,,--#O------=##----O--",
"O#OOOO##O#O####OOO#######@#----#OOoO##O#O####OOO#O@#O##O#---=--.",
"#O-O#######O--3-3@-&,,5333,13-@--&33,,###&--333-1-33-O-##------.",
"---OOO#OOOOO##----#-#---,,,333,&,###-&OOOO##-#------O-#-O-35333-",
"--o#O###O##O#-#---##-->,,,,33,,,&#o@##O##O#-@-------O=-O------#-",
"=-#&=&###-#O###---O------#-#----#&-%###-#O##--------#--------#--",
"------&OOOOOOOO#######O&#O###O@##---&---O&&&-----&&&&&-O-----##-",
"-----%&-3#-3-3#333-333-#@-3-3=#35#-&&-=-----------------------O#",
"-----------------@----#-#----,,,3@---=-#-O-OO-#-----##OO----O---",
"##-#@------=----#-----##---#-,=,5##--------###OO##O#####@O##-@O ",
"---#oo----------##----O----O---,,OOO-O-------####OO3-331-33o####",
"---#---##O####O#O####O#--------#-O---O-#---@-@@#O##,&,-,&,-O##O.",
"-###O###O-O--##@O@##-##---O-----#OO###O-O--@#@O###--,,,-,,,O##O.",
"----#---#O-######-###-#######3-33##---#O-######-###---,---,###--",
"&---=----Oo####---##---#-#-##-#--#-----OO####---##---#-#-##-##--",
",---------#--#----#-3-3-#33333--3333333,&--#----#-3-3-#33333--#-",
"-#-------#-=---#--O------------&,,,,,,,&-----#--O------=-------@",
"##-Oo--------#----O--#-------#-#-OO--------#----O--#-=---=-#----",
"##OOOO-----O-##-#Oo--O-------@-#oOOo-----O-##-#OO--O-------#--@-",
"..##...--.#..#.-##O#oOOOOO#####.##...--.#..#.-##O#OOOOOO#####.#."
};
