/* XPM */
static char *_2fedf7af7334caed688bcbef7c025986awL92UZXgNwB4xy[] = {
/* columns rows colors chars-per-pixel */
"20 20 15 1 ",
"  c #EF0A07",
". c #F20807",
"X c #F30908",
"o c #F00B08",
"O c #F50909",
"+ c #F40A09",
"@ c #F50B0A",
"# c #F10C09",
"$ c #F20D0A",
"% c #F20E0B",
"& c #F30E0B",
"* c #F60C0B",
"= c #F10B0D",
"- c #F1100C",
"; c #F1120D",
/* pixels */
"********&&&&&&&&----",
"********&&&&&&&&----",
"@@@@@@@@&&&&&&&&--==",
"@@@@@@@@&&&&&&&&&&&&",
"@@@@@@@@&&&&&&&&&&&&",
"XXXXXXXXXXX XX X@@@@",
"........        @@@@",
"........        @@@@",
"@@@@@@@@@@@@@@@@@@@@",
"@@@@@@@@X@@@@@@@@@@@",
"@@@@@@@@XXX@@@@@@@@@",
"@@@@XX@@XX@@@@@@@@@@",
"X@@@@@@@X@@@@@@@@XX@",
"X@@@@@X@X@@@@@@@@@XX",
"@@@@@@@@X@@@@@@X@@@@",
"@@@@@@@@@@@@@@@@@@@X",
"&&&&&XXX========&&&&",
"XX&&&&XX========&&&&",
"&&&&&&XX========&&&&",
"&&&&&&XX========&&&&"
};
